<svg xmlns="http://www.w3.org/2000/svg" xmlns:xlink="http://www.w3.org/1999/xlink" width="780" height="554.2"><g transform="translate(-380 -240)"><path d="M416.56 440.84h146.16c1.98 0 1.98 0 1.98 2.28V557.6c0 2.28 0 2.28-1.98 2.28H416.56c-1.98 0-1.98 0-1.98-2.28V443.12c0-2.28 0-2.28 1.98-2.28z" fill="#999"/><path d="M403.24 440.96h8.1v118.8h-8.1v-118.8z" fill="#29aae1"/><path d="M406.48 500.24c0 32.76-1.44 59.16-3.24 59.16-1.8 0-3.24-26.4-3.24-59.16s1.44-59.16 3.24-59.16c1.8 0 3.24 26.4 3.24 59.16zM566.68 440.12h9.54v119.16h-9.54V440.12z" fill="#29aae1"/><path d="M580 499.64c0 33-1.62 59.64-3.78 59.64-2.16 0-3.96-26.64-3.96-59.64 0-32.88 1.8-59.64 3.96-59.64s3.78 26.76 3.78 59.64z" fill="#29aae1"/><path d="M574.78 450.8c0 1.08-.9 2.04-2.16 2.04-1.08 0-2.16-.96-2.16-2.04s1.08-2.04 2.16-2.04c1.26 0 2.16.96 2.16 2.04zM574.78 457.88c0 1.08-.9 2.04-2.16 2.04-1.08 0-2.16-.96-2.16-2.04s1.08-2.04 2.16-2.04c1.26 0 2.16.96 2.16 2.04zM575.32 464.96c0 1.2-1.08 2.04-2.16 2.04-1.26 0-2.16-.84-2.16-2.04 0-1.08.9-2.04 2.16-2.04 1.08 0 2.16.96 2.16 2.04zM433.48 451.76h54v26.4h-54v-26.4zM493.96 451.76h54v26.4h-54v-26.4zM494.14 484.64h54v26.4h-54v-26.4zM493.96 518.48h54v26.4h-54v-26.4zM433.12 518.48h54v26.4h-54v-26.4zM435.64 484.88h19.26c2.16 0 2.16 0 2.16 2.4v21.48c0 2.4 0 2.4-2.16 2.4h-19.26c-1.98 0-1.98 0-1.98-2.4v-21.48c0-2.4 0-2.4 1.98-2.4zM465.7 484.52h19.08c2.16 0 2.16 0 2.16 2.4v21.96c0 2.28 0 2.28-2.16 2.28H465.7c-2.16 0-2.16 0-2.16-2.28v-21.96c0-2.4 0-2.4 2.16-2.4z" fill="#fff"/><use xlink:href="#a" transform="matrix(1,0,0,1,370,560.0000000000006) translate(57.19999999999999 18.6)"/><use xlink:href="#b" transform="matrix(1,0,0,1,370,560.0000000000006) translate(106.04999999999998 18.6)"/><path d="M700 440h180v120H700z" stroke="#000" fill="#a3d977"/><path d="M790 500h55.44" stroke="#818181" fill="#a3d977"/><path d="M831.58 488l20.7 12-20.7 10.44z" stroke="#818181" fill="#818181"/><path d="M790 458h55.44" stroke="#818181" fill="#a3d977"/><path d="M831.58 447.56l20.7 10.44-20.7 12z" stroke="#818181" fill="#818181"/><path d="M790 537.56h55.44" stroke="#818181" fill="#a3d977"/><path d="M831.58 525.44l20.7 12.12-20.7 10.44z" stroke="#818181" fill="#818181"/><path d="M790 458v79.56M790 500h-76.14" stroke="#818181" fill="#a3d977"/><use xlink:href="#c" transform="matrix(1,0,0,1,700,565) translate(29.64999999999999 14.4)"/><use xlink:href="#d" transform="matrix(1,0,0,1,700,565) translate(59.575 36)"/><path d="M579.86 494H699.5" stroke="#a3d977" stroke-width="4" fill="none"/><path d="M579.86 494l-.05-2h.06zM699.5 494l-14.27 4.64v-9.27z" fill="#a3d977"/><path d="M700 492.06v3.88l-16.77 5.45V486.6zm-12.77 3.83l5.8-1.9-5.8-1.88z" fill="#a3d977"/><path d="M700 260h180v120H700z" stroke="#000" fill="#e5e5e5"/><path d="M790 320h55.44" stroke="#818181" fill="#e5e5e5"/><path d="M831.58 308l20.7 12-20.7 10.44z" stroke="#818181" fill="#818181"/><path d="M790 278h55.44" stroke="#818181" fill="#e5e5e5"/><path d="M831.58 267.56l20.7 10.44-20.7 12z" stroke="#818181" fill="#818181"/><path d="M790 357.56h55.44" stroke="#818181" fill="#e5e5e5"/><path d="M831.58 345.44l20.7 12.12-20.7 10.44z" stroke="#818181" fill="#818181"/><path d="M790 278v79.56M790 320h-76.14" stroke="#818181" fill="#e5e5e5"/><use xlink:href="#e" transform="matrix(1,0,0,1,700,385) translate(8.799999999999983 23.6)"/><use xlink:href="#f" transform="matrix(1,0,0,1,700,385) translate(97.35 23.6)"/><path d="M700 620h180v120H700z" stroke="#000" fill="#e5e5e5"/><path d="M790 680h55.44" stroke="#818181" fill="#e5e5e5"/><path d="M831.58 668l20.7 12-20.7 10.44z" stroke="#818181" fill="#818181"/><path d="M790 638h55.44" stroke="#818181" fill="#e5e5e5"/><path d="M831.58 627.56l20.7 10.44-20.7 12z" stroke="#818181" fill="#818181"/><path d="M790 717.56h55.44" stroke="#818181" fill="#e5e5e5"/><path d="M831.58 705.44l20.7 12.12-20.7 10.44z" stroke="#818181" fill="#818181"/><path d="M790 638v79.56M790 680h-76.14" stroke="#818181" fill="#e5e5e5"/><use xlink:href="#g" transform="matrix(1,0,0,1,700,745) translate(9.099999999999994 23.6)"/><use xlink:href="#f" transform="matrix(1,0,0,1,700,745) translate(97.05 23.6)"/><path d="M569.33 559.28V675c0 2.76 2.24 5 5 5H700" stroke="#e5e5e5" stroke-width="4" fill="none"/><path d="M700 680l-14.27 4.64v-9.28z" fill="#e5e5e5"/><path d="M700 677.9v4.2l-16.27 5.3v-14.8zm-12.27 3.98l5.8-1.88-5.8-1.88z" fill="#e5e5e5"/><path d="M569.33 440.12V325c0-2.76 2.24-5 5-5H700" stroke="#e5e5e5" stroke-width="4" fill="none"/><path d="M700 320l-14.27 4.64v-9.28z" fill="#e5e5e5"/><path d="M700 317.9v4.2l-16.27 5.3v-14.8zm-12.27 3.98l5.8-1.88-5.8-1.88z" fill="#e5e5e5"/><path d="M980 540h160v100H980z" stroke="#000" fill="#a3d977"/><path d="M1000.96 580h18.4v18.7h-18.4zM1103.04 580h18.56v18.7h-18.56zM1103.04 552.5h18.56v18.8h-18.56zM1103.04 608.8h18.56v18.7h-18.56z" stroke="#000" fill="#fff"/><path d="M1034.08 588.1h51.84" stroke="#000" fill="#a3d977"/><path d="M1076 583.1l9.92 5-9.92 3.8z" stroke="#000"/><use xlink:href="#h" transform="matrix(1,0,0,1,980,645) translate(18.75 23.6)"/><use xlink:href="#i" transform="matrix(1,0,0,1,980,645) translate(61.3 23.6)"/><path d="M980 360h160v100H980z" stroke="#000" fill="#a3d977"/><path d="M1000.96 400h18.4v18.7h-18.4zM1103.04 400h18.56v18.7h-18.56zM1103.04 372.5h18.56v18.8h-18.56zM1103.04 428.8h18.56v18.7h-18.56z" stroke="#000" fill="#fff"/><path d="M1034.08 408.1h51.84" stroke="#000" fill="#a3d977"/><path d="M1076 403.1l9.92 5-9.92 3.8z" stroke="#000"/><use xlink:href="#j" transform="matrix(1,0,0,1,980,465) translate(19.75 23.6)"/><use xlink:href="#i" transform="matrix(1,0,0,1,980,465) translate(60.3 23.6)"/><path d="M980 410h-45c-2.76 0-5 2.24-5 5v38c0 2.76-2.24 5-5 5h-45" stroke="#a3d977" stroke-width="2" fill="none"/><path d="M980 410l-14.27 4.64v-9.28z" fill="#a3d977"/><path d="M980 408.95v2.1L964.73 416v-12zm-13.27 4.3l10.03-3.25-10.03-3.26zM894.27 462.64L880 458l14.27-4.64z" fill="#a3d977"/><path d="M895.27 464L880 459.06v-2.1l15.27-4.96zm-12.03-6l10.03 3.26v-6.52z" fill="#a3d977"/><path d="M980 590h-45c-2.76 0-5-2.24-5-5v-38c0-2.76-2.24-5-5-5h-45" stroke="#a3d977" stroke-width="2" fill="none"/><path d="M980 590l-14.27 4.64v-9.28z" fill="#a3d977"/><path d="M980 588.95v2.1L964.73 596v-12zm-13.27 4.3l10.03-3.25-10.03-3.26zM894.27 546.64L880 542l14.27-4.64z" fill="#a3d977"/><path d="M895.27 548L880 543.06v-2.1l15.27-4.96zm-12.03-6l10.03 3.26v-6.52z" fill="#a3d977"/><defs><path d="M63-220v92h138v28H63V0H30v-248h175v28H63" id="k"/><path d="M24 0v-261h32V0H24" id="l"/><path d="M24-231v-30h32v30H24zM24 0v-190h32V0H24" id="m"/><path d="M177-190C167-65 218 103 67 71c-23-6-38-20-44-43l32-5c15 47 100 32 89-28v-30C133-14 115 1 83 1 29 1 15-40 15-95c0-56 16-97 71-98 29-1 48 16 59 35 1-10 0-23 2-32h30zM94-22c36 0 50-32 50-73 0-42-14-75-50-75-39 0-46 34-46 75s6 73 46 73" id="n"/><path d="M106-169C34-169 62-67 57 0H25v-261h32l-1 103c12-21 28-36 61-36 89 0 53 116 60 194h-32v-121c2-32-8-49-39-48" id="o"/><path d="M59-47c-2 24 18 29 38 22v24C64 9 27 4 27-40v-127H5v-23h24l9-43h21v43h35v23H59v120" id="p"/><g id="a"><use transform="matrix(0.05,0,0,0.05,0,0)" xlink:href="#k"/><use transform="matrix(0.05,0,0,0.05,10.950000000000001,0)" xlink:href="#l"/><use transform="matrix(0.05,0,0,0.05,14.9,0)" xlink:href="#m"/><use transform="matrix(0.05,0,0,0.05,18.85,0)" xlink:href="#n"/><use transform="matrix(0.05,0,0,0.05,28.85,0)" xlink:href="#o"/><use transform="matrix(0.05,0,0,0.05,38.85,0)" xlink:href="#p"/></g><path d="M212-179c-10-28-35-45-73-45-59 0-87 40-87 99 0 60 29 101 89 101 43 0 62-24 78-52l27 14C228-24 195 4 139 4 59 4 22-46 18-125c-6-104 99-153 187-111 19 9 31 26 39 46" id="q"/><path d="M100-194c62-1 85 37 85 99 1 63-27 99-86 99S16-35 15-95c0-66 28-99 85-99zM99-20c44 1 53-31 53-75 0-43-8-75-51-75s-53 32-53 75 10 74 51 75" id="r"/><path d="M117-194c89-4 53 116 60 194h-32v-121c0-31-8-49-39-48C34-167 62-67 57 0H25l-1-190h30c1 10-1 24 2 32 11-22 29-35 61-36" id="s"/><path d="M114-163C36-179 61-72 57 0H25l-1-190h30c1 12-1 29 2 39 6-27 23-49 58-41v29" id="t"/><path d="M100-194c63 0 86 42 84 106H49c0 40 14 67 53 68 26 1 43-12 49-29l28 8c-11 28-37 45-77 45C44 4 14-33 15-96c1-61 26-98 85-98zm52 81c6-60-76-77-97-28-3 7-6 17-6 28h103" id="u"/><g id="b"><use transform="matrix(0.05,0,0,0.05,0,0)" xlink:href="#q"/><use transform="matrix(0.05,0,0,0.05,12.950000000000001,0)" xlink:href="#r"/><use transform="matrix(0.05,0,0,0.05,22.950000000000003,0)" xlink:href="#s"/><use transform="matrix(0.05,0,0,0.05,32.95,0)" xlink:href="#p"/><use transform="matrix(0.05,0,0,0.05,37.95,0)" xlink:href="#t"/><use transform="matrix(0.05,0,0,0.05,43.900000000000006,0)" xlink:href="#r"/><use transform="matrix(0.05,0,0,0.05,53.900000000000006,0)" xlink:href="#l"/><use transform="matrix(0.05,0,0,0.05,57.85,0)" xlink:href="#l"/><use transform="matrix(0.05,0,0,0.05,61.80000000000001,0)" xlink:href="#u"/><use transform="matrix(0.05,0,0,0.05,71.80000000000001,0)" xlink:href="#t"/></g><path d="M240 0l2-218c-23 76-54 145-80 218h-23L58-218 59 0H30v-248h44l77 211c21-75 51-140 76-211h43V0h-30" id="v"/><path d="M141-36C126-15 110 5 73 4 37 3 15-17 15-53c-1-64 63-63 125-63 3-35-9-54-41-54-24 1-41 7-42 31l-33-3c5-37 33-52 76-52 45 0 72 20 72 64v82c-1 20 7 32 28 27v20c-31 9-61-2-59-35zM48-53c0 20 12 33 32 33 41-3 63-29 60-74-43 2-92-5-92 41" id="w"/><path d="M108 0H70L1-190h34L89-25l56-165h34" id="x"/><path d="M143 0L79-87 56-68V0H24v-261h32v163l83-92h37l-77 82L181 0h-38" id="y"/><path d="M16-82v-28h88v28H16" id="z"/><path d="M233-177c-1 41-23 64-60 70L243 0h-38l-65-103H63V0H30v-248c88 3 205-21 203 71zM63-129c60-2 137 13 137-47 0-61-80-42-137-45v92" id="A"/><path d="M84 4C-5 8 30-112 23-190h32v120c0 31 7 50 39 49 72-2 45-101 50-169h31l1 190h-30c-1-10 1-25-2-33-11 22-28 36-60 37" id="B"/><g id="c"><use transform="matrix(0.05,0,0,0.05,0,0)" xlink:href="#v"/><use transform="matrix(0.05,0,0,0.05,14.950000000000001,0)" xlink:href="#w"/><use transform="matrix(0.05,0,0,0.05,24.950000000000003,0)" xlink:href="#x"/><use transform="matrix(0.05,0,0,0.05,33.95,0)" xlink:href="#l"/><use transform="matrix(0.05,0,0,0.05,37.900000000000006,0)" xlink:href="#m"/><use transform="matrix(0.05,0,0,0.05,41.85000000000001,0)" xlink:href="#s"/><use transform="matrix(0.05,0,0,0.05,51.85,0)" xlink:href="#y"/><use transform="matrix(0.05,0,0,0.05,60.85,0)" xlink:href="#z"/><use transform="matrix(0.05,0,0,0.05,66.80000000000001,0)" xlink:href="#A"/><use transform="matrix(0.05,0,0,0.05,79.75000000000001,0)" xlink:href="#r"/><use transform="matrix(0.05,0,0,0.05,89.75000000000001,0)" xlink:href="#B"/><use transform="matrix(0.05,0,0,0.05,99.75000000000001,0)" xlink:href="#p"/><use transform="matrix(0.05,0,0,0.05,104.75,0)" xlink:href="#u"/><use transform="matrix(0.05,0,0,0.05,114.75,0)" xlink:href="#t"/></g><path d="M87 75C49 33 22-17 22-94c0-76 28-126 65-167h31c-38 41-64 92-64 168S80 34 118 75H87" id="C"/><path d="M205 0l-28-72H64L36 0H1l101-248h38L239 0h-34zm-38-99l-47-123c-12 45-31 82-46 123h93" id="D"/><path d="M96-169c-40 0-48 33-48 73s9 75 48 75c24 0 41-14 43-38l32 2c-6 37-31 61-74 61-59 0-76-41-82-99-10-93 101-131 147-64 4 7 5 14 7 22l-32 3c-4-21-16-35-41-35" id="E"/><path d="M33-261c38 41 65 92 65 168S71 34 33 75H2C39 34 66-17 66-93S39-220 2-261h31" id="F"/><g id="d"><use transform="matrix(0.05,0,0,0.05,0,0)" xlink:href="#C"/><use transform="matrix(0.05,0,0,0.05,5.95,0)" xlink:href="#D"/><use transform="matrix(0.05,0,0,0.05,17.95,0)" xlink:href="#E"/><use transform="matrix(0.05,0,0,0.05,26.950000000000003,0)" xlink:href="#p"/><use transform="matrix(0.05,0,0,0.05,31.950000000000003,0)" xlink:href="#m"/><use transform="matrix(0.05,0,0,0.05,35.9,0)" xlink:href="#x"/><use transform="matrix(0.05,0,0,0.05,44.9,0)" xlink:href="#u"/><use transform="matrix(0.05,0,0,0.05,54.900000000000006,0)" xlink:href="#F"/></g><path d="M137 0h-34L2-248h35l83 218 83-218h36" id="G"/><path d="M30-248c87 1 191-15 191 75 0 78-77 80-158 76V0H30v-248zm33 125c57 0 124 11 124-50 0-59-68-47-124-48v98" id="H"/><path d="M141 0L90-78 38 0H4l68-98-65-92h35l48 74 47-74h35l-64 92 68 98h-35" id="I"/><path d="M179-190L93 31C79 59 56 82 12 73V49c39 6 53-20 64-50L1-190h34L92-34l54-156h33" id="J"/><g id="e"><use transform="matrix(0.05,0,0,0.05,0,0)" xlink:href="#v"/><use transform="matrix(0.05,0,0,0.05,14.950000000000001,0)" xlink:href="#D"/><use transform="matrix(0.05,0,0,0.05,25.6,0)" xlink:href="#G"/><use transform="matrix(0.05,0,0,0.05,37.6,0)" xlink:href="#H"/><use transform="matrix(0.05,0,0,0.05,49.6,0)" xlink:href="#t"/><use transform="matrix(0.05,0,0,0.05,55.550000000000004,0)" xlink:href="#r"/><use transform="matrix(0.05,0,0,0.05,65.55000000000001,0)" xlink:href="#I"/><use transform="matrix(0.05,0,0,0.05,74.55000000000001,0)" xlink:href="#J"/></g><path d="M33 0v-248h34V0H33" id="K"/><g id="f"><use transform="matrix(0.05,0,0,0.05,0,0)" xlink:href="#C"/><use transform="matrix(0.05,0,0,0.05,5.95,0)" xlink:href="#K"/><use transform="matrix(0.05,0,0,0.05,10.95,0)" xlink:href="#s"/><use transform="matrix(0.05,0,0,0.05,20.95,0)" xlink:href="#w"/><use transform="matrix(0.05,0,0,0.05,30.950000000000003,0)" xlink:href="#E"/><use transform="matrix(0.05,0,0,0.05,39.95,0)" xlink:href="#p"/><use transform="matrix(0.05,0,0,0.05,44.95,0)" xlink:href="#m"/><use transform="matrix(0.05,0,0,0.05,48.900000000000006,0)" xlink:href="#x"/><use transform="matrix(0.05,0,0,0.05,57.900000000000006,0)" xlink:href="#u"/><use transform="matrix(0.05,0,0,0.05,67.9,0)" xlink:href="#F"/></g><path d="M210-169c-67 3-38 105-44 169h-31v-121c0-29-5-50-35-48C34-165 62-65 56 0H25l-1-190h30c1 10-1 24 2 32 10-44 99-50 107 0 11-21 27-35 58-36 85-2 47 119 55 194h-31v-121c0-29-5-49-35-48" id="L"/><path d="M85-194c31 0 48 13 60 33l-1-100h32l1 261h-30c-2-10 0-23-3-31C134-8 116 4 85 4 32 4 16-35 15-94c0-66 23-100 70-100zm9 24c-40 0-46 34-46 75 0 40 6 74 45 74 42 0 51-32 51-76 0-42-9-74-50-73" id="M"/><g id="g"><use transform="matrix(0.05,0,0,0.05,0,0)" xlink:href="#E"/><use transform="matrix(0.05,0,0,0.05,9,0)" xlink:href="#L"/><use transform="matrix(0.05,0,0,0.05,23.950000000000003,0)" xlink:href="#w"/><use transform="matrix(0.05,0,0,0.05,33.95,0)" xlink:href="#x"/><use transform="matrix(0.05,0,0,0.05,42.95,0)" xlink:href="#s"/><use transform="matrix(0.05,0,0,0.05,52.95,0)" xlink:href="#r"/><use transform="matrix(0.05,0,0,0.05,62.95,0)" xlink:href="#M"/><use transform="matrix(0.05,0,0,0.05,72.95,0)" xlink:href="#u"/></g><path d="M232-93c-1 65-40 97-104 97C67 4 28-28 28-90v-158h33c8 89-33 224 67 224 102 0 64-133 71-224h33v155" id="N"/><path d="M30-248c118-7 216 8 213 122C240-48 200 0 122 0H30v-248zM63-27c89 8 146-16 146-99s-60-101-146-95v194" id="O"/><g id="h"><use transform="matrix(0.05,0,0,0.05,0,0)" xlink:href="#N"/><use transform="matrix(0.05,0,0,0.05,12.950000000000001,0)" xlink:href="#O"/><use transform="matrix(0.05,0,0,0.05,25.900000000000002,0)" xlink:href="#H"/></g><path d="M30 0v-248h187v28H63v79h144v27H63v87h162V0H30" id="P"/><path d="M115-194c55 1 70 41 70 98S169 2 115 4C84 4 66-9 55-30l1 105H24l-1-265h31l2 30c10-21 28-34 59-34zm-8 174c40 0 45-34 45-75s-6-73-45-74c-42 0-51 32-51 76 0 43 10 73 51 73" id="Q"/><path d="M135-143c-3-34-86-38-87 0 15 53 115 12 119 90S17 21 10-45l28-5c4 36 97 45 98 0-10-56-113-15-118-90-4-57 82-63 122-42 12 7 21 19 24 35" id="R"/><g id="i"><use transform="matrix(0.05,0,0,0.05,0,0)" xlink:href="#P"/><use transform="matrix(0.05,0,0,0.05,12,0)" xlink:href="#s"/><use transform="matrix(0.05,0,0,0.05,22,0)" xlink:href="#M"/><use transform="matrix(0.05,0,0,0.05,32,0)" xlink:href="#Q"/><use transform="matrix(0.05,0,0,0.05,42,0)" xlink:href="#r"/><use transform="matrix(0.05,0,0,0.05,52,0)" xlink:href="#m"/><use transform="matrix(0.05,0,0,0.05,55.95,0)" xlink:href="#s"/><use transform="matrix(0.05,0,0,0.05,65.95,0)" xlink:href="#p"/><use transform="matrix(0.05,0,0,0.05,70.95,0)" xlink:href="#R"/></g><path d="M127-220V0H93v-220H8v-28h204v28h-85" id="S"/><g id="j"><use transform="matrix(0.05,0,0,0.05,0,0)" xlink:href="#S"/><use transform="matrix(0.05,0,0,0.05,10.950000000000001,0)" xlink:href="#q"/><use transform="matrix(0.05,0,0,0.05,23.900000000000002,0)" xlink:href="#H"/></g></defs></g></svg>