<svg xmlns="http://www.w3.org/2000/svg" xmlns:xlink="http://www.w3.org/1999/xlink" width="1510" height="500"><g transform="translate(-60 -140)"><path d="M280 165c0-2.76 2.24-5 5-5h1030c2.76 0 5 2.24 5 5v450c0 2.76-2.24 5-5 5H285c-2.76 0-5-2.24-5-5z" stroke="#999" stroke-width="2" fill="#fff"/><use xlink:href="#a" transform="matrix(1,0,0,1,285,165) translate(305.5246913580247 17.77777777777778)"/><use xlink:href="#b" transform="matrix(1,0,0,1,285,165) translate(406.6975308641976 17.77777777777778)"/><use xlink:href="#c" transform="matrix(1,0,0,1,285,165) translate(534.7222222222222 17.77777777777778)"/><use xlink:href="#d" transform="matrix(1,0,0,1,285,165) translate(645.5246913580247 17.77777777777778)"/><path d="M80 265c0-2.76 2.24-5 5-5h150c2.76 0 5 2.24 5 5v110c0 2.76-2.24 5-5 5H85c-2.76 0-5-2.24-5-5z" stroke="#000" stroke-width="2" fill="#c7e8ac"/><use xlink:href="#e" transform="matrix(1,0,0,1,85,265) translate(38.574999999999996 47.8)"/><use xlink:href="#f" transform="matrix(1,0,0,1,85,265) translate(11.699999999999989 69.4)"/><use xlink:href="#g" transform="matrix(1,0,0,1,85,265) translate(60.54999999999999 69.4)"/><path d="M500 275c0-2.76 2.24-5 5-5h90c2.76 0 5 2.24 5 5v90c0 2.76-2.24 5-5 5h-90c-2.76 0-5-2.24-5-5z" stroke="#000" stroke-width="2" fill="#c7e8ac"/><use xlink:href="#h" transform="matrix(1,0,0,1,505,275) translate(14.574999999999996 37.8)"/><use xlink:href="#i" transform="matrix(1,0,0,1,505,275) translate(22.025 59.4)"/><path d="M240 320h260" stroke="#c7e8ac" stroke-width="2" fill="none"/><path d="M254.27 324.64L240 320l14.27-4.64z" fill="#c7e8ac"/><path d="M255.27 326L240 321.06v-2.1l15.27-4.96zm-12.03-6l10.03 3.26v-6.52zM500 320l-14.27 4.64v-9.28z" fill="#c7e8ac"/><path d="M500 318.95v2.1L484.73 326v-12zm-13.27 4.3l10.03-3.25-10.03-3.26z" fill="#c7e8ac"/><path d="M820 225c0-2.76 2.24-5 5-5h90c2.76 0 5 2.24 5 5v50c0 2.76-2.24 5-5 5h-90c-2.76 0-5-2.24-5-5z" stroke="#000" stroke-width="2" fill="#c7e8ac"/><use xlink:href="#j" transform="matrix(1,0,0,1,825,225) translate(25.525 28.6)"/><path d="M660 225c0-2.76 2.24-5 5-5h90c2.76 0 5 2.24 5 5v50c0 2.76-2.24 5-5 5h-90c-2.76 0-5-2.24-5-5z" stroke="#000" stroke-width="2" fill="#c7e8ac"/><use xlink:href="#k" transform="matrix(1,0,0,1,665,225) translate(6.724999999999994 28.6)"/><path d="M760 250h60" stroke="#c7e8ac" stroke-width="2" fill="none"/><path d="M774.27 254.64L760 250l14.27-4.64z" fill="#c7e8ac"/><path d="M775.27 256L760 251.06v-2.1l15.27-4.96zm-12.03-6l10.03 3.26v-6.52zM820 250l-14.27 4.64v-9.28z" fill="#c7e8ac"/><path d="M820 248.95v2.1L804.73 256v-12zm-13.27 4.3l10.03-3.25-10.03-3.26z" fill="#c7e8ac"/><path d="M660 250h-25c-2.76 0-5 2.24-5 5v60c0 2.76-2.24 5-5 5h-25" stroke="#c7e8ac" stroke-width="2" fill="none"/><path d="M660 250l-14.27 4.64v-9.28z" fill="#c7e8ac"/><path d="M660 248.95v2.1L644.73 256v-12zm-13.27 4.3l10.03-3.25-10.03-3.26zM614.27 324.64L600 320l14.27-4.64z" fill="#c7e8ac"/><path d="M615.27 326L600 321.06v-2.1l15.27-4.96zm-12.03-6l10.03 3.26v-6.52z" fill="#c7e8ac"/><path d="M1411.85 410.36h85.5v46.9h-85.5v-46.9z" fill="#83bbe5"/><path d="M1400 416.1h12.3v30.24H1400V416.1zM1497.2 410.43l14.7 17.15h16.5l21.6-14.98v57.33l-20.55-20.3-16.65-.28-15.45 7.84-.15-46.77z" fill="#83bbe5"/><path d="M1440.2 400h1.35v9.3h-1.35V400z" fill="#6996b7"/><path d="M1440.35 400h38.4v1.75h-38.4V400z" fill="#6996b7"/><path d="M1477.4 401.54h1.35v7.9h-1.35v-7.9z" fill="#6996b7"/><path d="M1479.2 403.57h18.3c.75 0 1.35.35 1.35.84 0 .57-.6.92-1.35.92h-18.3c-.75 0-1.35-.35-1.35-.9 0-.5.6-.85 1.35-.85z" fill="#6996b7"/><path d="M1505.75 400.14h25.2c2.4 0 4.35 1.82 4.35 4.06 0 2.24-1.95 4.06-4.35 4.06h-25.2c-2.55 0-4.35-1.82-4.35-4.06 0-2.24 1.8-4.06 4.35-4.06z" fill="#b5d6ef"/><path d="M1433.15 422.82c0 .98-.9 1.75-1.95 1.75-1.2 0-1.95-.77-1.95-1.75 0-1.05.75-1.82 1.95-1.82 1.05 0 1.95.77 1.95 1.82zM1440.95 422.75c0 .98-.9 1.82-1.95 1.82-1.05 0-1.95-.84-1.95-1.82 0-.98.9-1.82 1.95-1.82 1.05 0 1.95.84 1.95 1.82zM1448.9 422.82c0 .98-.9 1.82-1.95 1.82-1.2 0-1.95-.84-1.95-1.82 0-.98.75-1.82 1.95-1.82 1.05 0 1.95.84 1.95 1.82zM1456.4 418.06h21.3v9.8h-21.3v-9.8zM1497.05 423.03c0 3.36-3 6.02-6.45 6.02-3.6 0-6.6-2.66-6.6-6.02 0-3.3 3-6.02 6.6-6.02 3.45 0 6.45 2.74 6.45 6.03z" fill="#fff"/><path d="M1494.95 423.1c0 2.38-1.95 4.27-4.5 4.27s-4.5-1.9-4.5-4.27c0-2.3 1.95-4.2 4.5-4.2s4.5 1.9 4.5 4.2z" fill="#b5d6ef"/><use xlink:href="#l" transform="matrix(1,0,0,1,1370,470) translate(73.07499999999999 18.6)"/><path d="M300 425c0-2.76 2.24-5 5-5h130c2.76 0 5 2.24 5 5v90c0 2.76-2.24 5-5 5H305c-2.76 0-5-2.24-5-5z" stroke="#000" stroke-width="2" fill="#ffdba9"/><use xlink:href="#m" transform="matrix(1,0,0,1,305,425) translate(28.574999999999996 37.8)"/><use xlink:href="#n" transform="matrix(1,0,0,1,305,425) translate(46.025 59.4)"/><path d="M500 425c0-2.76 2.24-5 5-5h90c2.76 0 5 2.24 5 5v90c0 2.76-2.24 5-5 5h-90c-2.76 0-5-2.24-5-5z" stroke="#000" stroke-width="2" fill="#ffdba9"/><use xlink:href="#h" transform="matrix(1,0,0,1,505,425) translate(14.574999999999996 37.8)"/><use xlink:href="#i" transform="matrix(1,0,0,1,505,425) translate(22.025 59.4)"/><path d="M820 525c0-2.76 2.24-5 5-5h90c2.76 0 5 2.24 5 5v50c0 2.76-2.24 5-5 5h-90c-2.76 0-5-2.24-5-5z" stroke="#000" stroke-width="2" fill="#ffdba9"/><use xlink:href="#j" transform="matrix(1,0,0,1,825,525) translate(25.525 28.6)"/><path d="M660 525c0-2.76 2.24-5 5-5h90c2.76 0 5 2.24 5 5v50c0 2.76-2.24 5-5 5h-90c-2.76 0-5-2.24-5-5z" stroke="#000" stroke-width="2" fill="#ffdba9"/><use xlink:href="#k" transform="matrix(1,0,0,1,665,525) translate(6.724999999999994 28.6)"/><path d="M440 470h59" stroke="#ffdba9" stroke-width="2" fill="none"/><path d="M454.27 474.64L440 470l14.27-4.64z" fill="#ffdba9"/><path d="M455.27 476L440 471.06v-2.1l15.27-4.96zm-12.03-6l10.03 3.26v-6.52zM499 470l-14.27 4.64v-9.28z" fill="#ffdba9"/><path d="M500 469.27v1.46L483.73 476v-12zm-14.27 4l10.03-3.27-10.03-3.26z" fill="#ffdba9"/><path d="M600 470h24.5c2.76 0 5 2.24 5 5v70c0 2.76 2.24 5 5 5H659" stroke="#ffdba9" stroke-width="2" fill="none"/><path d="M614.27 474.64L600 470l14.27-4.64z" fill="#ffdba9"/><path d="M615.27 476L600 471.06v-2.1l15.27-4.96zm-12.03-6l10.03 3.26v-6.52zM659 550l-14.27 4.64v-9.28z" fill="#ffdba9"/><path d="M660 549.27v1.46L643.73 556v-12zm-14.27 4l10.03-3.27-10.03-3.26z" fill="#ffdba9"/><path d="M760 550h59" stroke="#ffdba9" stroke-width="2" fill="none"/><path d="M774.27 554.64L760 550l14.27-4.64z" fill="#ffdba9"/><path d="M775.27 556L760 551.06v-2.1l15.27-4.96zm-12.03-6l10.03 3.26v-6.52zM819 550l-14.27 4.64v-9.28z" fill="#ffdba9"/><path d="M820 549.27v1.46L803.73 556v-12zm-14.27 4l10.03-3.27-10.03-3.26z" fill="#ffdba9"/><path d="M940 285c0-2.76 2.24-5 5-5h90c2.76 0 5 2.24 5 5v90c0 2.76-2.24 5-5 5h-90c-2.76 0-5-2.24-5-5z" stroke="#d1bcd2" stroke-width="2" fill="#d1bcd2"/><use xlink:href="#o" transform="matrix(1,0,0,1,945,285) translate(15.725000000000001 48.6)"/><path d="M940 405c0-2.76 2.24-5 5-5h90c2.76 0 5 2.24 5 5v90c0 2.76-2.24 5-5 5h-90c-2.76 0-5-2.24-5-5z" stroke="#d1bcd2" stroke-width="2" fill="#d1bcd2"/><use xlink:href="#p" transform="matrix(1,0,0,1,945,405) translate(20.725 37.8)"/><use xlink:href="#q" transform="matrix(1,0,0,1,945,405) translate(13.024999999999999 59.4)"/><path d="M1040 330h175c2.76 0 5 2.24 5 5v110c0 2.76 2.24 5 5 5h175" stroke="#83bbe5" stroke-width="2" fill="none"/><path d="M1400 450l-14.27 4.64v-9.28z" fill="#83bbe5"/><path d="M1403.24 450l-18.5 6v-12zm-16.5 3.26l10.02-3.26-10.03-3.26z" fill="#83bbe5"/><path d="M1040 450h360" stroke="#83bbe5" stroke-width="2" fill="none"/><path d="M1400 450l-14.27 4.64v-9.28z" fill="#83bbe5"/><path d="M1403.24 450l-18.5 6v-12zm-16.5 3.26l10.02-3.26-10.03-3.26z" fill="#83bbe5"/><path d="M940 450H775c-2.76 0-5 2.24-5 5v10c0 2.76-2.24 5-5 5H600" stroke="#d1bcd2" stroke-width="2" fill="none"/><path d="M614.27 474.64L600 470l14.27-4.64z" fill="#d1bcd2"/><path d="M615.27 476L600 471.06v-2.1l15.27-4.96zm-12.03-6l10.03 3.26v-6.52z" fill="#d1bcd2"/><path d="M940 450H775c-2.76 0-5-2.24-5-5V325c0-2.76-2.24-5-5-5H600" stroke="#d1bcd2" stroke-width="2" fill="none"/><path d="M614.27 324.64L600 320l14.27-4.64z" fill="#d1bcd2"/><path d="M615.27 326L600 321.06v-2.1l15.27-4.96zm-12.03-6l10.03 3.26v-6.52z" fill="#d1bcd2"/><path d="M1450.97 219.72l12.6-.24 21.68 80.4h-50.63l16.36-80.16z" fill="#ff8f80"/><path d="M1453.9 206.52h6.75v12.24h-6.75v-12.24z" fill="#cc7266"/><path d="M1463.8 201.84c0 3.6-3 6.6-6.6 6.6-3.6 0-6.53-3-6.53-6.6 0-3.6 2.93-6.6 6.53-6.6s6.6 3 6.6 6.6z" fill="#cc7266"/><path d="M1470.63 193.92c2.02 1.8 3.14 5.28 3 8.88-.16 3.6-2.48 7.08-2.48 7.08s-1.73 1.68-.3-1.08c1.5-2.76 1.8-3.84 2.03-4.8.14-.96.3-.72.22-2.76-.07-2.04-.97-4.2-1.27-4.44-.3-.24-1.58-2.28-1.58-2.28l.38-.6zM1444 193.68c-1.88 1.92-2.92 5.4-2.78 9 .15 3.6 2.33 7.08 2.33 7.08s1.65 1.56.23-1.2c-1.36-2.64-1.65-3.84-1.8-4.8-.23-.96-.3-.72-.3-2.76.07-1.92.97-4.08 1.2-4.32.3-.36 1.5-2.4 1.5-2.4l-.38-.6zM1478.5 187.56c4.42 3.24 6.9 9.48 6.6 15.84-.38 6.36-5.55 12.48-5.55 12.48s-3.75 2.88-.52-1.92c3.14-4.8 3.9-6.84 4.35-8.52.44-1.68.67-1.32.52-4.92-.15-3.48-2.1-7.32-2.78-7.8-.67-.48-3.52-4.08-3.52-4.08l.9-1.08zM1437.25 186.24c-4.58 3.48-7.05 10.08-6.67 16.8.37 6.72 5.62 13.2 5.62 13.2s3.75 3 .52-2.04c-3.22-5.16-4.05-7.32-4.42-9.12-.45-1.8-.75-1.32-.6-5.16.22-3.72 2.17-7.68 2.85-8.28.67-.48 3.53-4.2 3.53-4.2l-.83-1.2z" fill="#ffbcb3"/><path d="M1484.72 180.96c6.68 4.56 10.36 13.2 9.83 22.08-.52 8.76-8.25 17.28-8.25 17.28s-5.55 4.08-.75-2.64c4.73-6.72 5.85-9.6 6.53-11.88.6-2.4.97-1.8.75-6.84-.23-4.92-3.15-10.08-4.13-10.92-.98-.72-5.25-5.64-5.25-5.64l1.27-1.44zM1430.8 180c-6.97 4.68-10.8 13.44-10.27 22.56.52 9 8.62 17.76 8.62 17.76s5.77 4.08.82-2.76c-4.94-6.96-6.14-9.84-6.82-12.24-.68-2.4-1.05-1.8-.83-6.84.23-5.16 3.3-10.44 4.36-11.16 1.04-.72 5.47-5.76 5.47-5.76l-1.35-1.56z" fill="#ffbcb3"/><use xlink:href="#r" transform="matrix(1,0,0,1,1390,300) translate(1.5999999999999943 14.4)"/><use xlink:href="#s" transform="matrix(1,0,0,1,1390,300) translate(75.39999999999999 14.4)"/><use xlink:href="#t" transform="matrix(1,0,0,1,1390,300) translate(47.025 36)"/><path d="M990 280v-5c0-2.76 2.24-5 5-5h426.25c2.76 0 5-2.24 5-5v-5c0-2.76 2.24-5 5-5h15" stroke="#ff8f80" stroke-width="2" fill="none"/><path d="M990 280h-1.12l.23-.45z" fill="#ff8f80"/><path d="M1446.25 255l-14.27 4.64v-9.28z" stroke="#ff8f80" stroke-width="2" fill="#ff8f80"/><path d="M920 550h235c2.76 0 5-2.24 5-5v-90c0-2.76 2.24-5 5-5h235" stroke="#83bbe5" stroke-width="2" fill="none"/><path d="M1400 450l-14.27 4.64v-9.28z" fill="#83bbe5"/><path d="M1403.24 450l-18.5 6v-12zm-16.5 3.26l10.02-3.26-10.03-3.26z" fill="#83bbe5"/><path d="M920 250h235c2.76 0 5 2.24 5 5v10c2.76 0 5 2.24 5 5s-2.24 5-5 5v50c2.76 0 5 2.24 5 5s-2.24 5-5 5v110c0 2.76 2.24 5 5 5h235" stroke="#83bbe5" stroke-width="2" fill="none"/><path d="M1400 450l-14.27 4.64v-9.28z" fill="#83bbe5"/><path d="M1403.24 450l-18.5 6v-12zm-16.5 3.26l10.02-3.26-10.03-3.26z" fill="#83bbe5"/><path d="M550 270v-55c0-2.76 2.24-5 5-5h866.25c2.76 0 5 2.24 5 5v35c0 2.76 2.24 5 5 5h15" stroke="#ff8f80" stroke-width="2" fill="none"/><path d="M1446.25 255l-14.27 4.64v-9.28z" stroke="#ff8f80" stroke-width="2" fill="#ff8f80"/><path d="M550 520v75c0 2.76 2.24 5 5 5h690c2.76 0 5-2.24 5-5V450 275c0-2.76 2.24-5 5-5h166.25c2.76 0 5-2.24 5-5v-5c0-2.76 2.24-5 5-5h15" stroke="#ff8f80" stroke-width="2" fill="none"/><path d="M1446.25 255l-14.27 4.64v-9.28z" stroke="#ff8f80" stroke-width="2" fill="#ff8f80"/><defs><path fill="#999" d="M230 0l2-204L168 0h-37L68-204 70 0H24v-248h70l56 185 57-185h69V0h-46" id="u"/><path fill="#999" d="M133-34C117-15 103 5 69 4 32 3 11-16 11-54c-1-60 55-63 116-61 1-26-3-47-28-47-18 1-26 9-28 27l-52-2c7-38 36-58 82-57s74 22 75 68l1 82c-1 14 12 18 25 15v27c-30 8-71 5-69-32zm-48 3c29 0 43-24 42-57-32 0-66-3-65 30 0 17 8 27 23 27" id="v"/><path fill="#999" d="M128 0H69L1-190h53L99-40l48-150h52" id="w"/><path fill="#999" d="M185-48c-13 30-37 53-82 52C43 2 14-33 14-96s30-98 90-98c62 0 83 45 84 108H66c0 31 8 55 39 56 18 0 30-7 34-22zm-45-69c5-46-57-63-70-21-2 6-4 13-4 21h74" id="x"/><path fill="#999" d="M135-150c-39-12-60 13-60 57V0H25l-1-190h47c2 13-1 29 3 40 6-28 27-53 61-41v41" id="y"/><path fill="#999" d="M25-224v-37h50v37H25zM25 0v-190h50V0H25" id="z"/><path fill="#999" d="M190-63c-7 42-38 67-86 67-59 0-84-38-90-98-12-110 154-137 174-36l-49 2c-2-19-15-32-35-32-30 0-35 28-38 64-6 74 65 87 74 30" id="A"/><path fill="#999" d="M147 0L96-86 75-71V0H25v-261h50v150l67-79h53l-66 74L201 0h-54" id="B"/><g id="a"><use transform="matrix(0.06172839506172839,0,0,0.06172839506172839,0,0)" xlink:href="#u"/><use transform="matrix(0.06172839506172839,0,0,0.06172839506172839,18.456790123456788,0)" xlink:href="#v"/><use transform="matrix(0.06172839506172839,0,0,0.06172839506172839,30.80246913580247,0)" xlink:href="#w"/><use transform="matrix(0.06172839506172839,0,0,0.06172839506172839,43.148148148148145,0)" xlink:href="#x"/><use transform="matrix(0.06172839506172839,0,0,0.06172839506172839,55.49382716049382,0)" xlink:href="#y"/><use transform="matrix(0.06172839506172839,0,0,0.06172839506172839,64.1358024691358,0)" xlink:href="#z"/><use transform="matrix(0.06172839506172839,0,0,0.06172839506172839,70.30864197530863,0)" xlink:href="#A"/><use transform="matrix(0.06172839506172839,0,0,0.06172839506172839,82.65432098765432,0)" xlink:href="#B"/></g><path fill="#999" d="M67-125c0 53 21 87 73 88 37 1 54-22 65-47l45 17C233-25 199 4 140 4 58 4 20-42 15-125 8-235 124-281 211-232c18 10 29 29 36 50l-46 12c-8-25-30-41-62-41-52 0-71 34-72 86" id="C"/><path fill="#999" d="M110-194c64 0 96 36 96 99 0 64-35 99-97 99-61 0-95-36-95-99 0-62 34-99 96-99zm-1 164c35 0 45-28 45-65 0-40-10-65-43-65-34 0-45 26-45 65 0 36 10 65 43 65" id="D"/><path fill="#999" d="M220-157c-53 9-28 100-34 157h-49v-107c1-27-5-49-29-50C55-147 81-57 75 0H25l-1-190h47c2 12-1 28 3 38 10-53 101-56 108 0 13-22 24-43 59-42 82 1 51 116 57 194h-49v-107c-1-25-5-48-29-50" id="E"/><path fill="#999" d="M135-194c53 0 70 44 70 98 0 56-19 98-73 100-31 1-45-17-59-34 3 33 2 69 2 105H25l-1-265h48c2 10 0 23 3 31 11-24 29-35 60-35zM114-30c33 0 39-31 40-66 0-38-9-64-40-64-56 0-55 130 0 130" id="F"/><path fill="#999" d="M135-194c87-1 58 113 63 194h-50c-7-57 23-157-34-157-59 0-34 97-39 157H25l-1-190h47c2 12-1 28 3 38 12-26 28-41 61-42" id="G"/><g id="b"><use transform="matrix(0.06172839506172839,0,0,0.06172839506172839,0,0)" xlink:href="#C"/><use transform="matrix(0.06172839506172839,0,0,0.06172839506172839,15.987654320987653,0)" xlink:href="#D"/><use transform="matrix(0.06172839506172839,0,0,0.06172839506172839,29.50617283950617,0)" xlink:href="#E"/><use transform="matrix(0.06172839506172839,0,0,0.06172839506172839,49.25925925925925,0)" xlink:href="#F"/><use transform="matrix(0.06172839506172839,0,0,0.06172839506172839,62.77777777777777,0)" xlink:href="#v"/><use transform="matrix(0.06172839506172839,0,0,0.06172839506172839,75.12345679012346,0)" xlink:href="#G"/><use transform="matrix(0.06172839506172839,0,0,0.06172839506172839,88.64197530864197,0)" xlink:href="#z"/><use transform="matrix(0.06172839506172839,0,0,0.06172839506172839,94.81481481481481,0)" xlink:href="#D"/><use transform="matrix(0.06172839506172839,0,0,0.06172839506172839,108.33333333333333,0)" xlink:href="#G"/></g><path fill="#999" d="M85 4C-2 5 27-109 22-190h50c7 57-23 150 33 157 60-5 35-97 40-157h50l1 190h-47c-2-12 1-28-3-38-12 25-28 42-61 42" id="H"/><path fill="#999" d="M115-3C79 11 28 4 28-45v-112H4v-33h27l15-45h31v45h36v33H77v99c-1 23 16 31 38 25v30" id="I"/><g id="c"><use transform="matrix(0.06172839506172839,0,0,0.06172839506172839,0,0)" xlink:href="#C"/><use transform="matrix(0.06172839506172839,0,0,0.06172839506172839,15.987654320987653,0)" xlink:href="#D"/><use transform="matrix(0.06172839506172839,0,0,0.06172839506172839,29.50617283950617,0)" xlink:href="#E"/><use transform="matrix(0.06172839506172839,0,0,0.06172839506172839,49.25925925925925,0)" xlink:href="#F"/><use transform="matrix(0.06172839506172839,0,0,0.06172839506172839,62.77777777777777,0)" xlink:href="#H"/><use transform="matrix(0.06172839506172839,0,0,0.06172839506172839,76.29629629629629,0)" xlink:href="#I"/><use transform="matrix(0.06172839506172839,0,0,0.06172839506172839,83.64197530864197,0)" xlink:href="#x"/><use transform="matrix(0.06172839506172839,0,0,0.06172839506172839,95.98765432098766,0)" xlink:href="#y"/></g><path fill="#999" d="M169-182c-1-43-94-46-97-3 18 66 151 10 154 114 3 95-165 93-204 36-6-8-10-19-12-30l50-8c3 46 112 56 116 5-17-69-150-10-154-114-4-87 153-88 188-35 5 8 8 18 10 28" id="J"/><path fill="#999" d="M123 10C108 53 80 86 19 72V37c35 8 53-11 59-39L3-190h52l48 148c12-52 28-100 44-148h51" id="K"/><path fill="#999" d="M137-138c1-29-70-34-71-4 15 46 118 7 119 86 1 83-164 76-172 9l43-7c4 19 20 25 44 25 33 8 57-30 24-41C81-84 22-81 20-136c-2-80 154-74 161-7" id="L"/><g id="d"><use transform="matrix(0.06172839506172839,0,0,0.06172839506172839,0,0)" xlink:href="#J"/><use transform="matrix(0.06172839506172839,0,0,0.06172839506172839,14.814814814814813,0)" xlink:href="#K"/><use transform="matrix(0.06172839506172839,0,0,0.06172839506172839,27.160493827160494,0)" xlink:href="#L"/><use transform="matrix(0.06172839506172839,0,0,0.06172839506172839,39.50617283950617,0)" xlink:href="#I"/><use transform="matrix(0.06172839506172839,0,0,0.06172839506172839,46.85185185185185,0)" xlink:href="#x"/><use transform="matrix(0.06172839506172839,0,0,0.06172839506172839,59.197530864197525,0)" xlink:href="#E"/></g><path d="M205 0l-28-72H64L36 0H1l101-248h38L239 0h-34zm-38-99l-47-123c-12 45-31 82-46 123h93" id="M"/><path d="M114-163C36-179 61-72 57 0H25l-1-190h30c1 12-1 29 2 39 6-27 23-49 58-41v29" id="N"/><path d="M85-194c31 0 48 13 60 33l-1-100h32l1 261h-30c-2-10 0-23-3-31C134-8 116 4 85 4 32 4 16-35 15-94c0-66 23-100 70-100zm9 24c-40 0-46 34-46 75 0 40 6 74 45 74 42 0 51-32 51-76 0-42-9-74-50-73" id="O"/><path d="M84 4C-5 8 30-112 23-190h32v120c0 31 7 50 39 49 72-2 45-101 50-169h31l1 190h-30c-1-10 1-25-2-33-11 22-28 36-60 37" id="P"/><path d="M30-248c87 1 191-15 191 75 0 78-77 80-158 76V0H30v-248zm33 125c57 0 124 11 124-50 0-59-68-47-124-48v98" id="Q"/><path d="M24-231v-30h32v30H24zM24 0v-190h32V0H24" id="R"/><path d="M24 0v-261h32V0H24" id="S"/><path d="M100-194c62-1 85 37 85 99 1 63-27 99-86 99S16-35 15-95c0-66 28-99 85-99zM99-20c44 1 53-31 53-75 0-43-8-75-51-75s-53 32-53 75 10 74 51 75" id="T"/><path d="M59-47c-2 24 18 29 38 22v24C64 9 27 4 27-40v-127H5v-23h24l9-43h21v43h35v23H59v120" id="U"/><g id="e"><use transform="matrix(0.05,0,0,0.05,0,0)" xlink:href="#M"/><use transform="matrix(0.05,0,0,0.05,12,0)" xlink:href="#N"/><use transform="matrix(0.05,0,0,0.05,17.95,0)" xlink:href="#O"/><use transform="matrix(0.05,0,0,0.05,27.950000000000003,0)" xlink:href="#P"/><use transform="matrix(0.05,0,0,0.05,37.95,0)" xlink:href="#Q"/><use transform="matrix(0.05,0,0,0.05,49.95,0)" xlink:href="#R"/><use transform="matrix(0.05,0,0,0.05,53.900000000000006,0)" xlink:href="#S"/><use transform="matrix(0.05,0,0,0.05,57.85,0)" xlink:href="#T"/><use transform="matrix(0.05,0,0,0.05,67.85000000000001,0)" xlink:href="#U"/></g><path d="M63-220v92h138v28H63V0H30v-248h175v28H63" id="V"/><path d="M177-190C167-65 218 103 67 71c-23-6-38-20-44-43l32-5c15 47 100 32 89-28v-30C133-14 115 1 83 1 29 1 15-40 15-95c0-56 16-97 71-98 29-1 48 16 59 35 1-10 0-23 2-32h30zM94-22c36 0 50-32 50-73 0-42-14-75-50-75-39 0-46 34-46 75s6 73 46 73" id="W"/><path d="M106-169C34-169 62-67 57 0H25v-261h32l-1 103c12-21 28-36 61-36 89 0 53 116 60 194h-32v-121c2-32-8-49-39-48" id="X"/><g id="f"><use transform="matrix(0.05,0,0,0.05,0,0)" xlink:href="#V"/><use transform="matrix(0.05,0,0,0.05,10.950000000000001,0)" xlink:href="#S"/><use transform="matrix(0.05,0,0,0.05,14.9,0)" xlink:href="#R"/><use transform="matrix(0.05,0,0,0.05,18.85,0)" xlink:href="#W"/><use transform="matrix(0.05,0,0,0.05,28.85,0)" xlink:href="#X"/><use transform="matrix(0.05,0,0,0.05,38.85,0)" xlink:href="#U"/></g><path d="M212-179c-10-28-35-45-73-45-59 0-87 40-87 99 0 60 29 101 89 101 43 0 62-24 78-52l27 14C228-24 195 4 139 4 59 4 22-46 18-125c-6-104 99-153 187-111 19 9 31 26 39 46" id="Y"/><path d="M117-194c89-4 53 116 60 194h-32v-121c0-31-8-49-39-48C34-167 62-67 57 0H25l-1-190h30c1 10-1 24 2 32 11-22 29-35 61-36" id="Z"/><path d="M100-194c63 0 86 42 84 106H49c0 40 14 67 53 68 26 1 43-12 49-29l28 8c-11 28-37 45-77 45C44 4 14-33 15-96c1-61 26-98 85-98zm52 81c6-60-76-77-97-28-3 7-6 17-6 28h103" id="aa"/><g id="g"><use transform="matrix(0.05,0,0,0.05,0,0)" xlink:href="#Y"/><use transform="matrix(0.05,0,0,0.05,12.950000000000001,0)" xlink:href="#T"/><use transform="matrix(0.05,0,0,0.05,22.950000000000003,0)" xlink:href="#Z"/><use transform="matrix(0.05,0,0,0.05,32.95,0)" xlink:href="#U"/><use transform="matrix(0.05,0,0,0.05,37.95,0)" xlink:href="#N"/><use transform="matrix(0.05,0,0,0.05,43.900000000000006,0)" xlink:href="#T"/><use transform="matrix(0.05,0,0,0.05,53.900000000000006,0)" xlink:href="#S"/><use transform="matrix(0.05,0,0,0.05,57.85,0)" xlink:href="#S"/><use transform="matrix(0.05,0,0,0.05,61.80000000000001,0)" xlink:href="#aa"/><use transform="matrix(0.05,0,0,0.05,71.80000000000001,0)" xlink:href="#N"/></g><path d="M240 0l2-218c-23 76-54 145-80 218h-23L58-218 59 0H30v-248h44l77 211c21-75 51-140 76-211h43V0h-30" id="ab"/><path d="M141-36C126-15 110 5 73 4 37 3 15-17 15-53c-1-64 63-63 125-63 3-35-9-54-41-54-24 1-41 7-42 31l-33-3c5-37 33-52 76-52 45 0 72 20 72 64v82c-1 20 7 32 28 27v20c-31 9-61-2-59-35zM48-53c0 20 12 33 32 33 41-3 63-29 60-74-43 2-92-5-92 41" id="ac"/><path d="M108 0H70L1-190h34L89-25l56-165h34" id="ad"/><path d="M143 0L79-87 56-68V0H24v-261h32v163l83-92h37l-77 82L181 0h-38" id="ae"/><g id="h"><use transform="matrix(0.05,0,0,0.05,0,0)" xlink:href="#ab"/><use transform="matrix(0.05,0,0,0.05,14.950000000000001,0)" xlink:href="#ac"/><use transform="matrix(0.05,0,0,0.05,24.950000000000003,0)" xlink:href="#ad"/><use transform="matrix(0.05,0,0,0.05,33.95,0)" xlink:href="#S"/><use transform="matrix(0.05,0,0,0.05,37.900000000000006,0)" xlink:href="#R"/><use transform="matrix(0.05,0,0,0.05,41.85000000000001,0)" xlink:href="#Z"/><use transform="matrix(0.05,0,0,0.05,51.85,0)" xlink:href="#ae"/></g><path d="M141 0L90-78 38 0H4l68-98-65-92h35l48 74 47-74h35l-64 92 68 98h-35" id="af"/><path d="M179-190L93 31C79 59 56 82 12 73V49c39 6 53-20 64-50L1-190h34L92-34l54-156h33" id="ag"/><g id="i"><use transform="matrix(0.05,0,0,0.05,0,0)" xlink:href="#Q"/><use transform="matrix(0.05,0,0,0.05,12,0)" xlink:href="#N"/><use transform="matrix(0.05,0,0,0.05,17.95,0)" xlink:href="#T"/><use transform="matrix(0.05,0,0,0.05,27.950000000000003,0)" xlink:href="#af"/><use transform="matrix(0.05,0,0,0.05,36.95,0)" xlink:href="#ag"/></g><path d="M233-177c-1 41-23 64-60 70L243 0h-38l-65-103H63V0H30v-248c88 3 205-21 203 71zM63-129c60-2 137 13 137-47 0-61-80-42-137-45v92" id="ah"/><path d="M140-251c81 0 123 46 123 126C263-46 219 4 140 4 59 4 17-45 17-125s42-126 123-126zm0 227c63 0 89-41 89-101s-29-99-89-99c-61 0-89 39-89 99S79-25 140-24" id="ai"/><path d="M185-189c-5-48-123-54-124 2 14 75 158 14 163 119 3 78-121 87-175 55-17-10-28-26-33-46l33-7c5 56 141 63 141-1 0-78-155-14-162-118-5-82 145-84 179-34 5 7 8 16 11 25" id="aj"/><g id="j"><use transform="matrix(0.05,0,0,0.05,0,0)" xlink:href="#ah"/><use transform="matrix(0.05,0,0,0.05,12.950000000000001,0)" xlink:href="#ai"/><use transform="matrix(0.05,0,0,0.05,26.950000000000003,0)" xlink:href="#aj"/></g><path d="M137 0h-34L2-248h35l83 218 83-218h36" id="ak"/><g id="k"><use transform="matrix(0.05,0,0,0.05,0,0)" xlink:href="#ab"/><use transform="matrix(0.05,0,0,0.05,14.950000000000001,0)" xlink:href="#M"/><use transform="matrix(0.05,0,0,0.05,25.6,0)" xlink:href="#ak"/><use transform="matrix(0.05,0,0,0.05,37.6,0)" xlink:href="#ah"/><use transform="matrix(0.05,0,0,0.05,50.550000000000004,0)" xlink:href="#ai"/><use transform="matrix(0.05,0,0,0.05,64.55000000000001,0)" xlink:href="#aj"/></g><path d="M210-169c-67 3-38 105-44 169h-31v-121c0-29-5-50-35-48C34-165 62-65 56 0H25l-1-190h30c1 10-1 24 2 32 10-44 99-50 107 0 11-21 27-35 58-36 85-2 47 119 55 194h-31v-121c0-29-5-49-35-48" id="al"/><g id="l"><use transform="matrix(0.05,0,0,0.05,0,0)" xlink:href="#Y"/><use transform="matrix(0.05,0,0,0.05,12.950000000000001,0)" xlink:href="#ac"/><use transform="matrix(0.05,0,0,0.05,22.950000000000003,0)" xlink:href="#al"/><use transform="matrix(0.05,0,0,0.05,37.900000000000006,0)" xlink:href="#aa"/><use transform="matrix(0.05,0,0,0.05,47.900000000000006,0)" xlink:href="#N"/><use transform="matrix(0.05,0,0,0.05,53.85,0)" xlink:href="#ac"/></g><g id="m"><use transform="matrix(0.05,0,0,0.05,0,0)" xlink:href="#M"/><use transform="matrix(0.05,0,0,0.05,12,0)" xlink:href="#N"/><use transform="matrix(0.05,0,0,0.05,17.95,0)" xlink:href="#O"/><use transform="matrix(0.05,0,0,0.05,27.950000000000003,0)" xlink:href="#P"/><use transform="matrix(0.05,0,0,0.05,37.95,0)" xlink:href="#Q"/><use transform="matrix(0.05,0,0,0.05,49.95,0)" xlink:href="#R"/><use transform="matrix(0.05,0,0,0.05,53.900000000000006,0)" xlink:href="#S"/><use transform="matrix(0.05,0,0,0.05,57.85,0)" xlink:href="#T"/><use transform="matrix(0.05,0,0,0.05,67.85000000000001,0)" xlink:href="#U"/></g><path d="M33 0v-248h34V0H33" id="am"/><path d="M127-220V0H93v-220H8v-28h204v28h-85" id="an"/><path d="M30 0v-248h33v221h125V0H30" id="ao"/><g id="n"><use transform="matrix(0.05,0,0,0.05,0,0)" xlink:href="#aj"/><use transform="matrix(0.05,0,0,0.05,12,0)" xlink:href="#am"/><use transform="matrix(0.05,0,0,0.05,17,0)" xlink:href="#an"/><use transform="matrix(0.05,0,0,0.05,27.950000000000003,0)" xlink:href="#ao"/></g><path d="M135-143c-3-34-86-38-87 0 15 53 115 12 119 90S17 21 10-45l28-5c4 36 97 45 98 0-10-56-113-15-118-90-4-57 82-63 122-42 12 7 21 19 24 35" id="ap"/><g id="o"><use transform="matrix(0.05,0,0,0.05,0,0)" xlink:href="#ak"/><use transform="matrix(0.05,0,0,0.05,11.65,0)" xlink:href="#R"/><use transform="matrix(0.05,0,0,0.05,15.600000000000001,0)" xlink:href="#ap"/><use transform="matrix(0.05,0,0,0.05,24.6,0)" xlink:href="#R"/><use transform="matrix(0.05,0,0,0.05,28.55,0)" xlink:href="#T"/><use transform="matrix(0.05,0,0,0.05,38.55,0)" xlink:href="#Z"/><use transform="matrix(0.05,0,0,0.05,48.55,0)" xlink:href="#O"/></g><g id="p"><use transform="matrix(0.05,0,0,0.05,0,0)" xlink:href="#ak"/><use transform="matrix(0.05,0,0,0.05,11.65,0)" xlink:href="#R"/><use transform="matrix(0.05,0,0,0.05,15.600000000000001,0)" xlink:href="#ap"/><use transform="matrix(0.05,0,0,0.05,24.6,0)" xlink:href="#R"/><use transform="matrix(0.05,0,0,0.05,28.55,0)" xlink:href="#T"/><use transform="matrix(0.05,0,0,0.05,38.55,0)" xlink:href="#Z"/></g><g id="q"><use transform="matrix(0.05,0,0,0.05,0,0)" xlink:href="#ao"/><use transform="matrix(0.05,0,0,0.05,10,0)" xlink:href="#ac"/><use transform="matrix(0.05,0,0,0.05,20,0)" xlink:href="#Z"/><use transform="matrix(0.05,0,0,0.05,30,0)" xlink:href="#O"/><use transform="matrix(0.05,0,0,0.05,40,0)" xlink:href="#R"/><use transform="matrix(0.05,0,0,0.05,43.95,0)" xlink:href="#Z"/><use transform="matrix(0.05,0,0,0.05,53.95,0)" xlink:href="#W"/></g><path d="M266 0h-40l-56-210L115 0H75L2-248h35L96-30l15-64 43-154h32l59 218 59-218h35" id="aq"/><g id="r"><use transform="matrix(0.05,0,0,0.05,0,0)" xlink:href="#aq"/><use transform="matrix(0.05,0,0,0.05,16.95,0)" xlink:href="#R"/><use transform="matrix(0.05,0,0,0.05,20.9,0)" xlink:href="#N"/><use transform="matrix(0.05,0,0,0.05,26.849999999999994,0)" xlink:href="#aa"/><use transform="matrix(0.05,0,0,0.05,36.849999999999994,0)" xlink:href="#S"/><use transform="matrix(0.05,0,0,0.05,40.8,0)" xlink:href="#aa"/><use transform="matrix(0.05,0,0,0.05,50.8,0)" xlink:href="#ap"/><use transform="matrix(0.05,0,0,0.05,59.79999999999999,0)" xlink:href="#ap"/></g><path d="M96-169c-40 0-48 33-48 73s9 75 48 75c24 0 41-14 43-38l32 2c-6 37-31 61-74 61-59 0-76-41-82-99-10-93 101-131 147-64 4 7 5 14 7 22l-32 3c-4-21-16-35-41-35" id="ar"/><g id="s"><use transform="matrix(0.05,0,0,0.05,0,0)" xlink:href="#M"/><use transform="matrix(0.05,0,0,0.05,12,0)" xlink:href="#ar"/><use transform="matrix(0.05,0,0,0.05,21,0)" xlink:href="#ar"/><use transform="matrix(0.05,0,0,0.05,30,0)" xlink:href="#aa"/><use transform="matrix(0.05,0,0,0.05,40,0)" xlink:href="#ap"/><use transform="matrix(0.05,0,0,0.05,49,0)" xlink:href="#ap"/></g><g id="t"><use transform="matrix(0.05,0,0,0.05,0,0)" xlink:href="#Q"/><use transform="matrix(0.05,0,0,0.05,12,0)" xlink:href="#T"/><use transform="matrix(0.05,0,0,0.05,22,0)" xlink:href="#R"/><use transform="matrix(0.05,0,0,0.05,25.950000000000003,0)" xlink:href="#Z"/><use transform="matrix(0.05,0,0,0.05,35.95,0)" xlink:href="#U"/></g></defs></g></svg>