<svg xmlns="http://www.w3.org/2000/svg" xmlns:xlink="http://www.w3.org/1999/xlink" xmlns:v="http://vecta.io" width="1123.5196533203125" height="794.7008056640625" viewBox="-0.5 -0.5 1123.5196533203125 794.7008056640625"><defs><g id="thick.end"><path d="M 0 0 L 4 5 L -4 5 z" stroke="none"/></g></defs><g transform="translate(481.25 259.375)" fill="#330066"><g transform="translate(9.8397 38.6667)"><path d="M 34.5353 0 C 21.8016 0 9.4538 5.2361 0.5788 14.9028 C -0.1929 15.7083 -0.1929 16.9167 0.5788 17.7222 L 8.2962 25.7778 C 9.0679 26.5833 10.2255 26.5833 10.9973 25.7778 C 17.1712 18.5278 25.6603 14.9028 34.5353 14.9028 C 43.4103 14.9028 51.8995 18.5278 58.4593 25.375 C 58.8451 25.7778 59.231 25.7778 59.6169 25.7778 C 60.0027 25.7778 60.7745 25.375 60.7745 25.375 L 68.4919 17.3194 C 68.8777 16.9167 68.8777 16.5139 68.8777 16.1111 C 68.8777 15.7083 68.4919 14.9028 68.4919 14.9028 C 59.6169 5.2361 47.269 0 34.5353 0 Z" stroke="none" fill="#330066"/></g><g transform="translate(22.7663 58.4028)"><path d="M 21.6087 0 C 13.5055 0 6.1739 3.2222 0.3859 9.2639 C 0 9.6667 0 10.0694 0 10.4722 C 0 10.875 0.3859 11.6806 0.3859 11.6806 L 8.1033 19.7361 C 8.875 20.5417 10.0326 20.5417 10.8044 19.7361 C 13.5055 16.9167 17.3641 15.3056 21.6087 15.3056 C 25.8533 15.3056 29.712 16.9167 32.4131 20.1389 C 32.7989 20.5417 33.1848 20.5417 33.5707 20.5417 C 33.9565 20.5417 34.7283 20.1389 34.7283 20.1389 L 42.4457 12.0833 C 42.8315 11.6806 42.8315 11.2778 42.8315 10.875 C 42.8315 10.4722 42.4457 9.6667 42.4457 9.6667 C 37.0435 3.625 29.712 0 21.6087 0 Z" stroke="none" fill="#330066"/></g><g transform="translate(35.8859 76.9306)"><path d="M 0.3859 3.625 C 0 4.0278 0 4.4306 0 4.8333 C 0 5.2361 0.3859 6.0417 0.3859 6.0417 L 7.3315 13.2917 C 7.7174 13.6944 8.1033 13.6944 8.4891 13.6944 C 8.875 13.6944 9.2609 13.6944 9.6467 13.2917 L 16.5924 6.0417 C 16.9783 5.6389 16.9783 5.2361 16.9783 4.8333 C 16.9783 4.4306 16.5924 3.625 16.5924 3.625 C 12.3478 -1.2083 4.6304 -1.2083 0.3859 3.625 Z" stroke="none" fill="#330066"/></g><g transform="translate(0 27.7917)"><path d="M 11.1902 6.0417 L 11.1902 4.0278 L 16.5924 4.0278 C 17.75 4.0278 18.5217 3.2222 18.5217 2.0139 C 18.5217 0.8056 17.75 0 16.5924 0 L 1.9293 0 C 0.7717 0 0 0.8056 0 2.0139 C 0 3.2222 0.7717 4.0278 1.9293 4.0278 L 7.3315 4.0278 L 7.3315 5.6389 C 7.3315 6.8472 8.1033 7.6528 9.2609 7.6528 C 10.4185 8.0556 11.1902 6.8472 11.1902 6.0417 Z" stroke="none" fill="#330066"/></g><g><path d="M 1.9293 4.0278 L 7.3315 4.0278 L 7.3315 7.25 C 3.8587 7.25 0.7717 10.4722 0.7717 14.0972 L 0.7717 19.3333 C 0.7717 23.3611 3.8587 26.1806 7.3315 26.1806 L 11.962 26.1806 C 14.2772 26.1806 16.2065 24.9722 17.3641 22.9583 C 21.6087 24.9722 27.0109 26.1806 30.0978 26.9861 C 32.0272 31.0139 37.4294 33.8333 43.6033 33.8333 C 50.1631 33.8333 55.5652 31.0139 57.1087 26.9861 C 60.1957 26.1806 65.5978 24.9722 69.8424 22.9583 C 71 24.9722 72.9294 26.1806 75.2446 26.1806 L 79.875 26.1806 C 83.7337 26.1806 86.4348 22.9583 86.4348 19.3333 L 86.4348 14.0972 C 86.4348 10.4722 83.7337 7.25 79.875 7.25 L 79.875 4.0278 L 86.8207 4.0278 C 87.9783 4.0278 88.75 3.2222 88.75 2.0139 C 88.75 0.8056 87.9783 0 86.8207 0 L 72.1576 0 C 71 0 70.2283 0.8056 70.2283 2.0139 C 70.2283 3.2222 71 4.0278 72.1576 4.0278 L 77.5598 4.0278 L 77.5598 7.25 L 76.0163 7.25 C 73.7011 7.25 71.7718 8.4583 70.6141 10.4722 C 63.6685 6.8472 52.4783 4.8333 48.2337 4.8333 C 47.0761 4.8333 45.5326 5.2361 44.375 5.6389 C 43.2174 5.2361 41.6739 4.8333 40.5163 4.8333 C 36.6576 4.8333 25.0815 7.25 18.1359 10.0694 C 16.5924 8.4583 14.663 7.25 12.3478 7.25 L 11.1902 7.25 L 11.1902 4.0278 L 16.5924 4.0278 C 17.75 4.0278 18.5217 3.2222 18.5217 2.0139 C 18.5217 0.8056 17.75 0 16.5924 0 L 1.9293 0 C 0.7717 0 0 0.8056 0 2.0139 C 0 3.2222 0.7717 4.0278 1.9293 4.0278 Z M 38.2011 15.7083 L 50.9348 15.7083 C 52.0924 15.7083 52.8641 16.5139 52.8641 17.7222 C 52.8641 18.9306 52.0924 19.7361 50.9348 19.7361 L 38.2011 19.7361 C 37.0435 19.7361 36.2718 18.9306 36.2718 17.7222 C 36.2718 16.9167 37.0435 15.7083 38.2011 15.7083 Z" stroke="none" fill="#330066"/></g><g transform="translate(70.2283 28.1944)"><path d="M 16.5924 0 L 1.9293 0 C 0.7717 0 0 0.8056 0 2.0139 C 0 3.2222 0.7717 4.0278 1.9293 4.0278 L 7.3315 4.0278 L 7.3315 5.6389 C 7.3315 6.8472 8.1033 7.6528 9.2609 7.6528 C 10.4185 7.6528 11.1902 6.8472 11.1902 5.6389 L 11.1902 3.625 L 16.5924 3.625 C 17.75 3.625 18.5217 2.8194 18.5217 1.6111 C 18.5217 0.8056 17.75 0 16.5924 0 Z" stroke="none" fill="#330066"/></g></g><g transform="translate(490 150)" fill="#330066"><g transform="translate(22.72 26.087)"><path d="M 16.5955 13.2174 C 18.9663 11.8261 20.5468 9.7391 20.5468 6.9565 C 20.5468 3.1304 16.9906 0 12.249 0 C 7.9026 0 3.9513 3.1304 3.9513 7.3043 C 3.9513 9.7391 5.5318 12.1739 7.9026 13.5652 C 7.9026 13.5652 7.9026 13.5652 7.9026 13.913 L 3.161 50.4348 L 1.9757 50.4348 C 0.7903 50.4348 0 51.1304 0 52.1739 C 0 53.2174 0.7903 53.913 1.9757 53.913 L 4.7416 53.913 L 13.8296 53.913 L 19.7565 53.913 C 20.1517 53.913 20.9419 53.5652 21.337 53.2174 C 21.7322 52.8696 21.7322 52.5217 21.7322 51.8261 L 16.5955 13.2174 C 16.5955 13.5652 16.5955 13.5652 16.5955 13.2174 Z M 7.9026 7.3043 C 7.9026 5.2174 9.8783 3.4783 12.249 3.4783 C 14.6198 3.4783 16.5955 5.2174 16.5955 7.3043 C 16.5955 9.3913 14.6198 11.1304 12.249 11.1304 C 9.8783 11.1304 7.9026 9.3913 7.9026 7.3043 Z" stroke="none" fill="#330066"/></g><g transform="translate(14.0271 76.5217)"><path d="M 3.161 0 L 1.9757 0 C 0.7903 0 0 0.6957 0 1.7391 C 0 2.7826 0.7903 3.4783 1.9757 3.4783 L 3.5562 3.4783 C 4.3464 3.4783 5.1367 2.7826 5.1367 1.7391 C 5.1367 0.6957 4.3464 0 3.161 0 Z" stroke="none" fill="#330066"/></g><g transform="translate(6.9148 76.5217)"><path d="M 2.7659 0 L 1.9757 0 C 0.7903 0 0 0.6957 0 1.7391 C 0 2.7826 0.7903 3.4783 1.9757 3.4783 L 2.7659 3.4783 C 3.9513 3.4783 4.7416 2.7826 4.7416 1.7391 C 4.7416 0.6957 3.9513 0 2.7659 0 Z" stroke="none" fill="#330066"/></g><g><path d="M 69.7405 12.5217 C 50.7742 -4.1739 19.5589 -4.1739 0.5927 12.5217 C -0.1976 13.2174 -0.1976 14.2609 0.5927 14.9565 C 0.9878 15.6522 2.1732 15.6522 2.9635 14.9565 C 20.3492 -0.3478 49.1937 -0.3478 66.5794 14.9565 C 67.3697 15.3043 67.7648 15.6522 68.16 15.6522 C 68.5551 15.6522 69.3454 15.6522 69.3454 15.3043 C 70.1356 14.2609 70.1356 13.2174 69.7405 12.5217 Z" stroke="none" fill="#330066"/></g><g transform="translate(10.6685 13.3043)"><path d="M 0.5927 8.6087 C -0.1976 9.3043 -0.1976 10.3478 0.5927 11.0435 C 1.383 11.7391 2.5683 11.7391 3.3586 11.0435 C 14.8174 0.9565 33.7836 0.9565 45.6376 11.0435 C 46.0327 11.3913 46.4278 11.3913 46.8229 11.3913 C 47.2181 11.3913 47.6132 11.3913 48.0083 11.0435 C 48.7986 10.3478 48.7986 9.3043 48.0083 8.6087 C 34.969 -2.8696 13.632 -2.8696 0.5927 8.6087 Z" stroke="none" fill="#330066"/></g></g><g transform="translate(525 230)"><path fill="#7f00ff" d="M 0 7.5 L 0 27.3089" stroke="#998c00"/><use class="BeginArrow.cls" fill="#998c00" x="0" y="0" xlink:href="#thick.end" transform="scale(1.5) rotate(360 0 0)"/><use class="EndArrow.cls" fill="#998c00" x="0" y="23.2059" xlink:href="#thick.end" transform="scale(1.5) rotate(180 0 23.2059)"/></g><g transform="translate(465 30)"><g transform="translate(0.0164 53.9698)"><path d="M 114.9836 0 L 114.9836 5.5357 C 114.9836 15.6182 104.5721 26.0303 91.7617 26.0303 L 23.2219 26.0303 C 10.4115 26.0303 0 15.6182 0 5.5357 L 0 0 Z" fill="#7d7c7c" stroke="none"/></g><g><path d="M 44.2734 0.0002 C 55.8152 -0.02 66.2986 7.1495 71.0693 18.3253 C 75.5477 15.0705 81.3349 14.6578 86.182 17.2477 C 91.0291 19.8375 94.1719 25.0216 94.3891 30.7854 C 105.9757 31.8091 115 43.6964 115 53.1366 L 115 55.1846 C 115 65.3363 104.5885 75.6269 91.729 75.6269 L 23.2382 75.6269 C 10.4115 75.6269 0 65.3363 0 55.1846 L 0 53.154 C 0 45.3275 6.1848 34.5685 14.8829 31.896 C 14.8829 31.6183 14.8829 31.3059 14.8829 31.0109 C 14.9132 22.7541 18.0265 14.8482 23.5385 9.0325 C 29.0503 3.2168 36.5089 -0.0321 44.2734 0.0002 Z" fill="#d2d3d3" stroke="none"/></g><g transform="translate(43.0721 53.9214)"><path d="M 25.5981 11.8661 C 24.7341 11.8623 23.9065 11.494 23.2973 10.8424 C 18.3993 5.6485 10.4728 5.6485 5.5748 10.8424 C 4.2994 12.1984 2.2319 12.1984 0.9565 10.8424 C -0.3188 9.4861 -0.3188 7.2873 0.9565 5.9314 C 8.4042 -1.9771 20.4678 -1.9771 27.9155 5.9314 C 28.8433 6.9235 29.1197 8.4112 28.6169 9.7043 C 28.1142 10.9973 26.9304 11.843 25.6145 11.8488 Z" fill="#ffffff" stroke="none"/></g><g transform="translate(34.4734 40.6725)"><path d="M 43.0581 15.6921 C 42.1939 15.6882 41.3665 15.32 40.7571 14.6684 C 30.9613 4.2804 15.1082 4.2804 5.3124 14.6684 C 4.0208 15.7756 2.1538 15.6762 0.9724 14.4378 C -0.2089 13.1993 -0.3286 11.2156 0.694 9.8265 C 13.0398 -3.2755 33.0297 -3.2755 45.3755 9.8265 C 46.3031 10.8189 46.5797 12.3066 46.077 13.5997 C 45.5742 14.8927 44.3903 15.7382 43.0745 15.7442 Z" fill="#ffffff" stroke="none"/></g><g transform="translate(24.6317 27.0308)"><path d="M 62.4955 19.9977 C 61.6312 19.9939 60.8037 19.6256 60.1944 18.9738 C 45.1105 2.9379 20.6587 2.9379 5.5748 18.9738 C 4.2994 20.33 2.2319 20.33 0.9565 18.9738 C -0.3188 17.6176 -0.3188 15.4189 0.9565 14.0627 C 18.5903 -4.6876 47.179 -4.6876 64.8127 14.0627 C 65.7543 15.0557 66.0372 16.5556 65.5287 17.8579 C 65.0203 19.1602 63.8214 20.006 62.4955 19.9977 Z" fill="#ffffff" stroke="none"/></g></g><g transform="translate(525 110.0001)"><path fill="#7f00ff" d="M 0 7.5 L 0 32.5001" stroke="#998c00"/><use class="BeginArrow.cls" fill="#998c00" x="0" y="0" xlink:href="#thick.end" transform="scale(1.5) rotate(360 0 0)"/><use class="EndArrow.cls" fill="#998c00" x="0" y="26.6667" xlink:href="#thick.end" transform="scale(1.5) rotate(180 0 26.6667)"/></g><g transform="translate(215 485)" fill="#00991a"><g transform="translate(48.6576 48.9041)"><path d="M 11.4676 0 L 14.0159 5.1142 C 15.2901 7.6712 14.9715 10.8676 12.7417 12.7854 C 12.1047 13.4247 11.7861 13.7443 11.149 14.0639 C 11.149 14.0639 11.149 14.0639 11.149 14.0639 C 10.1934 14.3836 9.2378 14.7032 8.2821 14.7032 C 7.9636 14.7032 7.645 14.7032 7.3265 14.7032 C 7.3265 14.7032 7.008 14.7032 7.008 14.7032 C 6.3709 14.7032 5.7338 14.3836 5.0967 14.0639 L 0 11.5068 C 0.3185 14.0639 1.2742 16.3014 2.8669 18.2192 C 6.6894 22.0548 13.6974 22.0548 17.5199 18.2192 C 21.661 14.0639 21.661 7.3516 17.5199 3.516 C 16.2457 1.2785 14.0159 0 11.4676 0 Z" stroke="none" fill="#00991a"/></g><g transform="translate(0.3185 0)"><path d="M 9.4767 21.0959 L 6.9283 15.9817 C 5.6542 13.4247 5.9727 10.2283 7.884 8.3105 C 10.1138 6.0731 13.2992 5.7534 15.8476 7.032 L 20.9443 9.589 C 20.6257 7.3516 19.6701 4.7945 17.7588 3.1963 C 15.8476 1.2785 13.2992 0 10.4323 0 C 7.5654 0 5.0171 0.9589 3.1058 3.1963 C -1.0353 7.3516 -1.0353 14.0639 3.1058 17.8995 C 4.6985 19.8174 6.9283 20.7763 9.4767 21.0959 Z" stroke="none" fill="#00991a"/></g><g transform="translate(9.5368 9.589)"><path d="M 4.081 0 C 4.081 0 4.081 0 4.081 0 C 3.7624 0 3.4439 0 3.1254 0 C 2.8068 0 2.8068 0 2.4883 0 C 2.1697 0 2.1697 0 1.8512 0.3196 C 1.5326 0.3196 1.2141 0.6393 0.8956 0.9589 C -0.0601 1.9178 -0.3786 3.516 0.577 4.7945 L 4.3995 12.1461 C 4.3995 12.1461 4.3995 12.1461 4.3995 12.1461 L 5.9923 14.7032 L 7.585 11.8265 C 8.2221 10.5479 9.8148 9.9087 11.4075 10.2283 L 14.2744 11.1872 C 14.9115 10.5479 15.8671 9.9087 16.5042 9.589 C 17.1413 9.2694 18.0969 8.6301 19.0525 8.3105 L 19.0525 7.6712 L 5.0366 0.3196 C 4.7181 0 4.3995 0 4.081 0 Z" stroke="none" fill="#00991a"/></g><g transform="translate(49.2946 0.6393)"><path d="M 6.3709 5.7534 C 6.3709 5.7534 6.6894 5.7534 6.6894 5.7534 C 7.008 5.7534 7.3265 5.7534 7.645 5.7534 C 8.6007 5.7534 9.5563 6.0731 10.5119 6.3927 C 10.5119 6.3927 10.5119 6.3927 10.5119 6.3927 C 11.149 6.7123 11.7861 7.032 12.1047 7.6712 C 14.0159 9.589 14.653 12.7854 13.3788 15.3425 L 10.8305 20.4566 C 13.3788 20.137 15.6086 19.1781 17.5199 17.5799 C 19.4312 15.6621 20.7053 13.105 20.7053 10.2283 C 20.7053 7.3516 19.7497 4.7945 17.5199 2.8767 C 13.6974 -0.9589 6.6894 -0.9589 2.8669 2.8767 C 0.9556 4.7945 0 7.032 0 9.589 L 5.0967 7.032 C 5.0967 6.0731 5.7338 5.7534 6.3709 5.7534 Z" stroke="none" fill="#00991a"/></g><g transform="translate(41.3311 9.4631)"><path d="M 5.0967 11.3131 L 7.9636 10.3542 C 8.2821 10.3542 8.6007 10.3542 8.9192 10.3542 C 8.9192 10.3542 8.9192 10.3542 8.9192 10.3542 C 8.9192 10.3542 8.9192 10.3542 9.2378 10.3542 C 9.5563 10.3542 9.8749 10.3542 10.1934 10.6738 C 10.1934 10.6738 10.1934 10.6738 10.5119 10.6738 C 10.8305 10.6738 11.149 10.9935 11.149 10.9935 C 11.149 10.9935 11.149 10.9935 11.4676 10.9935 C 11.7861 11.3131 12.1047 11.6327 12.1047 11.6327 L 13.6974 14.5095 L 15.2901 11.9524 C 15.2901 11.9524 15.2901 11.9524 15.2901 11.9524 L 19.1126 4.6008 C 19.7497 3.3222 19.4312 1.7241 18.4755 0.7652 C 16.8828 -0.1937 15.2901 -0.1937 14.0159 0.4455 L 0 8.1168 L 0 8.756 C 1.9113 9.0757 3.504 10.0346 5.0967 11.3131 Z" stroke="none" fill="#00991a"/></g><g transform="translate(0 48.5845)"><path d="M 14.2548 14.7032 C 14.2548 14.7032 13.9363 14.7032 13.9363 14.7032 C 13.6178 14.7032 13.2992 14.7032 12.9807 14.7032 C 12.025 14.7032 11.0694 14.3836 10.1138 14.0639 C 10.1138 14.0639 10.1138 14.0639 10.1138 14.0639 C 9.4767 13.7443 8.8396 13.4247 8.521 12.7854 C 6.6098 10.8676 5.9727 7.6712 7.2469 5.1142 L 9.7952 0 C 7.2469 0.3196 5.0171 1.2785 3.1058 2.8767 C -1.0353 7.032 -1.0353 13.7443 3.1058 17.5799 C 6.9283 21.4155 13.9363 21.4155 17.7588 17.5799 C 19.6701 15.6621 20.6257 13.4247 20.6257 10.8676 L 15.529 13.4247 C 15.529 14.3836 14.8919 14.7032 14.2548 14.7032 Z" stroke="none" fill="#00991a"/></g><g transform="translate(17.1217 15.3425)"><path d="M 27.7133 30.6849 C 28.0318 30.3653 28.6689 30.0457 29.306 30.3653 L 32.81 31.3242 L 35.6769 26.8493 L 32.81 23.9726 C 32.4915 23.653 32.1729 23.0137 32.4915 22.3744 L 32.4915 22.3744 C 32.81 21.0959 32.81 19.8174 32.81 18.2192 L 32.81 18.2192 C 32.81 18.2192 32.81 18.2192 32.81 18.2192 C 32.81 17.5799 32.81 16.9406 32.4915 16.3014 L 32.4915 16.3014 C 32.4915 15.6621 32.4915 15.3425 32.81 14.7032 L 35.6769 12.1461 L 33.1285 7.3516 L 29.306 8.3105 C 28.6689 8.3105 28.3504 8.3105 27.7133 7.9909 C 26.1206 6.7123 24.2093 5.4338 22.2981 4.7945 C 21.661 4.4749 21.3424 4.1553 21.3424 3.516 L 20.7053 0.9589 L 20.7053 0.9589 L 20.3868 0 L 14.9716 0 L 14.0159 3.8356 C 14.0159 4.4749 13.3788 4.7945 13.0603 5.1142 C 12.1047 5.7534 11.149 6.0731 10.5119 6.7123 C 9.5563 7.032 8.6007 7.6712 7.9636 8.3105 C 7.645 8.9498 7.008 8.9498 6.3709 8.6301 L 2.8669 7.6712 L 0 12.1461 L 2.8669 15.0228 C 3.1854 15.3425 3.504 15.9817 3.1854 16.621 C 2.8669 17.8995 2.8669 19.1781 2.8669 20.7763 C 2.8669 20.7763 2.8669 20.7763 2.8669 20.7763 L 2.8669 21.0959 C 2.8669 21.7352 2.8669 22.3744 3.1854 23.0137 C 3.1854 23.653 3.1854 23.9726 2.8669 24.6119 L 0 27.1689 L 2.5483 31.6438 L 6.3709 30.6849 C 6.3709 30.6849 6.6894 30.6849 6.6894 30.6849 C 6.6894 30.6849 7.008 30.6849 7.008 30.6849 C 7.008 30.6849 7.008 30.6849 7.3265 30.6849 C 7.645 30.6849 7.645 31.0046 7.9636 31.0046 C 9.5563 32.2831 11.149 33.5616 13.3788 34.2009 C 14.0159 34.5205 14.3345 34.8402 14.3345 35.4795 L 14.9716 38.0365 L 15.2901 38.9954 L 20.7053 38.9954 C 20.7053 38.9954 20.7053 38.9954 20.7053 38.9954 L 21.661 35.1598 C 21.661 34.5205 22.2981 34.2009 22.6166 33.8813 C 23.5722 33.5616 24.5279 33.242 25.4835 32.6027 C 26.1206 31.9635 27.0762 31.3242 27.7133 30.6849 Z M 21.0239 28.1279 C 21.0239 28.1279 21.0239 28.1279 21.0239 28.1279 L 14.3345 28.1279 C 13.3788 28.1279 12.4232 27.4886 11.7861 26.5297 L 8.6007 20.7763 C 7.9636 19.8174 7.9636 18.5388 8.6007 17.8995 L 11.7861 12.1461 C 12.4232 11.1872 13.3788 10.5479 14.3345 10.5479 L 20.7053 10.5479 C 21.661 10.5479 22.6166 11.1872 23.2537 12.1461 L 26.4391 17.8995 C 27.0762 18.8584 27.0762 19.8174 26.4391 20.7763 L 23.2537 26.5297 C 23.2537 27.4886 22.2981 28.1279 21.0239 28.1279 Z" stroke="none" fill="#00991a"/></g><g transform="translate(41.6496 45.3881)"><path d="M 14.3345 14.7032 C 14.9715 15.0228 15.2901 15.0228 15.9272 15.0228 C 16.5643 15.0228 17.2014 14.7032 17.8384 14.0639 C 18.7941 13.105 19.1126 11.5068 18.4755 9.9087 L 14.653 2.5571 C 14.653 2.5571 14.653 2.5571 14.653 2.5571 L 13.0603 0 L 11.4676 2.8767 C 10.8305 4.1553 9.2378 4.7945 7.645 4.4749 L 4.7782 3.516 C 4.1411 4.1553 3.1854 4.7945 2.5483 5.1142 C 2.2298 5.4338 1.5927 5.4338 1.2742 5.7534 C 0.9556 6.0731 0.3185 6.0731 0 6.3927 L 0 7.032 L 14.0159 14.7032 C 14.0159 14.7032 14.0159 14.7032 14.3345 14.7032 Z" stroke="none" fill="#00991a"/></g><g transform="translate(9.4638 45.3881)"><path d="M 14.0288 3.516 L 11.1619 4.4749 C 9.5692 4.7945 7.9765 4.1553 7.3394 2.8767 L 5.7467 0 L 4.154 2.5571 L 4.154 2.5571 L 0.3315 9.9087 C -0.3056 11.1872 0.0129 12.7854 0.9685 14.0639 C 1.2871 14.3836 1.6056 14.7032 1.9242 14.7032 C 2.2427 14.7032 2.2427 14.7032 2.5613 14.7032 C 2.8798 14.7032 2.8798 14.7032 3.1983 14.7032 C 3.5169 14.7032 3.8354 14.7032 3.8354 14.7032 C 3.8354 14.7032 3.8354 14.7032 4.154 14.7032 C 4.4725 14.7032 4.7911 14.7032 5.1096 14.3836 L 19.1255 6.7123 L 19.1255 6.0731 C 17.2143 5.7534 15.6216 4.7945 14.0288 3.516 Z" stroke="none" fill="#00991a"/></g></g><g transform="translate(330 450)" fill="#00991a"><g transform="translate(0.2958 0)"><path d="M 8.7998 19.589 L 6.4334 14.8402 C 5.2503 12.4658 5.5461 9.4977 7.3208 7.7169 C 9.3914 5.6393 12.3493 5.3425 14.7156 6.5297 L 19.4482 8.9041 C 19.1524 6.8265 18.2651 4.4521 16.4903 2.968 C 14.7156 1.1872 12.3493 0 9.6871 0 C 7.025 0 4.6587 0.8904 2.884 2.968 C -0.9613 6.8265 -0.9613 13.0594 2.884 16.621 C 4.3629 18.4018 6.4334 19.2922 8.7998 19.589 Z" stroke="none" fill="#00991a"/></g><g transform="translate(0 45.1142)"><path d="M 15.0114 13.0594 C 14.4198 13.3562 13.8282 13.653 13.2366 13.653 C 13.2366 13.653 12.9408 13.653 12.9408 13.653 C 12.6451 13.653 12.3493 13.653 12.0535 13.653 C 11.1661 13.653 10.2787 13.3562 9.3914 13.0594 C 9.3914 13.0594 9.3914 13.0594 9.3914 13.0594 C 8.7998 12.7626 8.2082 12.4658 7.9124 11.8721 C 6.1377 10.0913 5.5461 7.1233 6.7292 4.7489 L 9.0956 0 C 6.7292 0.2968 4.6587 1.1872 2.884 2.6712 C -0.9613 6.5297 -0.9613 12.7626 2.884 16.3242 C 6.4334 19.8858 12.9408 19.8858 16.4903 16.3242 C 18.2651 14.5434 19.1524 12.4658 19.1524 10.0913 L 16.7861 11.2785 L 15.0114 13.0594 Z" stroke="none" fill="#00991a"/></g><g transform="translate(45.7736 0.5936)"><path d="M 4.1411 5.9361 C 4.1411 5.9361 4.1411 5.9361 4.1411 5.9361 C 4.7327 5.6393 5.3242 5.3425 5.9158 5.3425 C 5.9158 5.3425 6.2116 5.3425 6.2116 5.3425 C 6.5074 5.3425 6.8032 5.3425 7.099 5.3425 C 7.9863 5.3425 8.8737 5.6393 9.7611 5.9361 C 9.7611 5.9361 9.7611 5.9361 9.7611 5.9361 C 10.3527 6.2329 10.9443 6.5297 11.24 7.1233 C 13.0148 8.9041 13.6064 11.8721 12.4232 14.2466 L 10.0569 18.9954 C 12.4232 18.6986 14.4937 17.8082 16.2685 16.3242 C 18.0432 14.5434 19.2264 12.1689 19.2264 9.4977 C 19.2264 6.8265 18.339 4.4521 16.2685 2.6712 C 12.719 -0.8904 6.2116 -0.8904 2.6621 2.6712 C 0.8874 4.4521 0 6.5297 0 8.9041 L 2.6621 7.4201 L 4.1411 5.9361 Z" stroke="none" fill="#00991a"/></g><g transform="translate(45.182 45.411)"><path d="M 10.6485 0 L 13.0148 4.7489 C 14.198 7.1233 13.9022 10.0913 11.8316 11.8721 C 11.24 12.4658 10.9443 12.7626 10.3527 13.0594 C 10.3527 13.0594 10.3527 13.0594 10.3527 13.0594 C 9.4653 13.3562 8.5779 13.653 7.6906 13.653 C 7.3948 13.653 7.099 13.653 6.8032 13.653 C 6.8032 13.653 6.5074 13.653 6.5074 13.653 C 5.9158 13.653 5.3242 13.3562 4.7327 13.0594 L 0 10.6849 C 0.2958 13.0594 1.1832 15.137 2.6621 16.9178 C 6.2116 20.4795 12.719 20.4795 16.2685 16.9178 C 18.0432 15.137 19.2264 12.7626 19.2264 10.0913 C 19.2264 7.4201 18.339 5.0457 16.2685 3.2648 C 15.0853 1.1872 13.0148 0 10.6485 0 Z" stroke="none" fill="#00991a"/></g><g transform="translate(8.8556 8.7872)"><path d="M 43.4254 47.3087 C 43.4254 47.3087 43.4254 47.3087 43.4254 47.3087 C 43.7212 47.3087 44.017 47.3087 44.3128 47.3087 C 44.6086 47.3087 44.6086 47.3087 44.9044 47.3087 C 45.2002 47.3087 45.2002 47.3087 45.496 47.3087 C 45.7918 47.0119 46.0876 47.0119 46.3833 46.7151 C 47.2707 45.8247 47.5665 44.3406 46.9749 42.8566 L 43.4254 36.0301 L 43.4254 36.0301 L 37.2138 24.4548 C 36.918 24.158 36.918 23.5644 37.2138 22.9708 L 43.4254 11.3954 C 43.4254 11.3954 43.4254 11.3954 43.4254 11.3954 L 46.9749 4.569 C 47.5665 3.3817 47.2707 1.8977 46.3833 0.7105 C 45.2002 -0.1799 43.7212 -0.1799 42.5381 0.4137 L 24.199 10.2082 C 23.9033 10.505 23.3117 10.505 22.7201 10.2082 L 4.6769 0.4137 C 4.6769 0.4137 4.6769 0.4137 4.6769 0.4137 C 4.3811 0.4137 4.0853 0.1169 3.7895 0.1169 C 3.7895 0.1169 3.7895 0.1169 3.7895 0.1169 C 3.4937 0.1169 3.1979 0.1169 3.1979 0.1169 C 2.9021 0.1169 2.9021 0.1169 2.6063 0.1169 C 2.3105 0.1169 2.3105 0.1169 2.0147 0.4137 C 1.4232 0.4137 1.1274 0.7105 0.8316 1.0073 C -0.0558 1.8977 -0.3516 3.3817 0.5358 4.569 L 4.0853 11.3954 L 4.0853 11.3954 L 10.2969 22.9708 C 10.5927 23.2676 10.5927 23.8612 10.2969 24.4548 L 4.0853 36.0301 L 4.0853 36.0301 L 0.5358 42.8566 C -0.0558 44.0438 0.24 45.5279 1.1274 46.7151 C 2.0147 47.6055 3.4937 47.9023 4.9727 47.3087 L 23.3117 37.5142 C 23.6075 37.2174 24.199 37.2174 24.7906 37.5142 L 43.1296 47.3087 C 42.8339 47.0119 43.1296 47.0119 43.4254 47.3087 Z M 17.6917 30.6877 L 15.6211 30.6877 C 14.7337 30.6877 14.1422 30.0941 14.1422 29.2037 C 14.1422 28.3133 14.7337 27.7196 15.6211 27.7196 L 17.6917 27.7196 C 18.579 27.7196 19.1706 28.3133 19.1706 29.2037 C 19.1706 30.0941 18.579 30.6877 17.6917 30.6877 Z M 17.6917 25.0484 L 15.6211 25.0484 C 14.7337 25.0484 14.1422 24.4548 14.1422 23.5644 C 14.1422 22.674 14.7337 22.0804 15.6211 22.0804 L 17.6917 22.0804 C 18.579 22.0804 19.1706 22.674 19.1706 23.5644 C 19.1706 24.4548 18.579 25.0484 17.6917 25.0484 Z M 17.6917 19.7059 L 15.6211 19.7059 C 14.7337 19.7059 14.1422 19.1123 14.1422 18.2219 C 14.1422 17.3315 14.7337 16.7379 15.6211 16.7379 L 17.6917 16.7379 C 18.579 16.7379 19.1706 17.3315 19.1706 18.2219 C 19.1706 18.8155 18.579 19.7059 17.6917 19.7059 Z M 27.4527 29.5005 C 24.199 29.5005 21.8327 26.8292 21.8327 23.8612 C 21.8327 20.5964 24.4948 18.2219 27.4527 18.2219 C 30.7064 18.2219 33.0728 20.8932 33.0728 23.8612 C 33.0728 26.8292 30.7064 29.5005 27.4527 29.5005 Z" stroke="none" fill="#00991a"/></g></g><g transform="translate(455 465)" fill="#00991a"><g transform="translate(48.6576 48.9041)"><path d="M 11.4676 0 L 14.0159 5.1142 C 15.2901 7.6712 14.9715 10.8676 12.7417 12.7854 C 12.1047 13.4247 11.7861 13.7443 11.149 14.0639 C 11.149 14.0639 11.149 14.0639 11.149 14.0639 C 10.1934 14.3836 9.2378 14.7032 8.2821 14.7032 C 7.9636 14.7032 7.645 14.7032 7.3265 14.7032 C 7.3265 14.7032 7.008 14.7032 7.008 14.7032 C 6.3709 14.7032 5.7338 14.3836 5.0967 14.0639 L 0 11.5068 C 0.3185 14.0639 1.2742 16.3014 2.8669 18.2192 C 6.6894 22.0548 13.6974 22.0548 17.5199 18.2192 C 21.661 14.0639 21.661 7.3516 17.5199 3.516 C 16.2457 1.2785 14.0159 0 11.4676 0 Z" stroke="none" fill="#00991a"/></g><g transform="translate(0.3185 0)"><path d="M 9.4767 21.0959 L 6.9283 15.9817 C 5.6542 13.4247 5.9727 10.2283 7.884 8.3105 C 10.1138 6.0731 13.2992 5.7534 15.8476 7.032 L 20.9443 9.589 C 20.6257 7.3516 19.6701 4.7945 17.7588 3.1963 C 15.8476 1.2785 13.2992 0 10.4323 0 C 7.5654 0 5.0171 0.9589 3.1058 3.1963 C -1.0353 7.3516 -1.0353 14.0639 3.1058 17.8995 C 4.6985 19.8174 6.9283 20.7763 9.4767 21.0959 Z" stroke="none" fill="#00991a"/></g><g transform="translate(9.5368 9.589)"><path d="M 4.081 0 C 4.081 0 4.081 0 4.081 0 C 3.7624 0 3.4439 0 3.1254 0 C 2.8068 0 2.8068 0 2.4883 0 C 2.1697 0 2.1697 0 1.8512 0.3196 C 1.5326 0.3196 1.2141 0.6393 0.8956 0.9589 C -0.0601 1.9178 -0.3786 3.516 0.577 4.7945 L 4.3995 12.1461 C 4.3995 12.1461 4.3995 12.1461 4.3995 12.1461 L 5.9923 14.7032 L 7.585 11.8265 C 8.2221 10.5479 9.8148 9.9087 11.4075 10.2283 L 14.2744 11.1872 C 14.9115 10.5479 15.8671 9.9087 16.5042 9.589 C 17.1413 9.2694 18.0969 8.6301 19.0525 8.3105 L 19.0525 7.6712 L 5.0366 0.3196 C 4.7181 0 4.3995 0 4.081 0 Z" stroke="none" fill="#00991a"/></g><g transform="translate(49.2946 0.6393)"><path d="M 6.3709 5.7534 C 6.3709 5.7534 6.6894 5.7534 6.6894 5.7534 C 7.008 5.7534 7.3265 5.7534 7.645 5.7534 C 8.6007 5.7534 9.5563 6.0731 10.5119 6.3927 C 10.5119 6.3927 10.5119 6.3927 10.5119 6.3927 C 11.149 6.7123 11.7861 7.032 12.1047 7.6712 C 14.0159 9.589 14.653 12.7854 13.3788 15.3425 L 10.8305 20.4566 C 13.3788 20.137 15.6086 19.1781 17.5199 17.5799 C 19.4312 15.6621 20.7053 13.105 20.7053 10.2283 C 20.7053 7.3516 19.7497 4.7945 17.5199 2.8767 C 13.6974 -0.9589 6.6894 -0.9589 2.8669 2.8767 C 0.9556 4.7945 0 7.032 0 9.589 L 5.0967 7.032 C 5.0967 6.0731 5.7338 5.7534 6.3709 5.7534 Z" stroke="none" fill="#00991a"/></g><g transform="translate(41.3311 9.4631)"><path d="M 5.0967 11.3131 L 7.9636 10.3542 C 8.2821 10.3542 8.6007 10.3542 8.9192 10.3542 C 8.9192 10.3542 8.9192 10.3542 8.9192 10.3542 C 8.9192 10.3542 8.9192 10.3542 9.2378 10.3542 C 9.5563 10.3542 9.8749 10.3542 10.1934 10.6738 C 10.1934 10.6738 10.1934 10.6738 10.5119 10.6738 C 10.8305 10.6738 11.149 10.9935 11.149 10.9935 C 11.149 10.9935 11.149 10.9935 11.4676 10.9935 C 11.7861 11.3131 12.1047 11.6327 12.1047 11.6327 L 13.6974 14.5095 L 15.2901 11.9524 C 15.2901 11.9524 15.2901 11.9524 15.2901 11.9524 L 19.1126 4.6008 C 19.7497 3.3222 19.4312 1.7241 18.4755 0.7652 C 16.8828 -0.1937 15.2901 -0.1937 14.0159 0.4455 L 0 8.1168 L 0 8.756 C 1.9113 9.0757 3.504 10.0346 5.0967 11.3131 Z" stroke="none" fill="#00991a"/></g><g transform="translate(0 48.5845)"><path d="M 14.2548 14.7032 C 14.2548 14.7032 13.9363 14.7032 13.9363 14.7032 C 13.6178 14.7032 13.2992 14.7032 12.9807 14.7032 C 12.025 14.7032 11.0694 14.3836 10.1138 14.0639 C 10.1138 14.0639 10.1138 14.0639 10.1138 14.0639 C 9.4767 13.7443 8.8396 13.4247 8.521 12.7854 C 6.6098 10.8676 5.9727 7.6712 7.2469 5.1142 L 9.7952 0 C 7.2469 0.3196 5.0171 1.2785 3.1058 2.8767 C -1.0353 7.032 -1.0353 13.7443 3.1058 17.5799 C 6.9283 21.4155 13.9363 21.4155 17.7588 17.5799 C 19.6701 15.6621 20.6257 13.4247 20.6257 10.8676 L 15.529 13.4247 C 15.529 14.3836 14.8919 14.7032 14.2548 14.7032 Z" stroke="none" fill="#00991a"/></g><g transform="translate(17.1217 15.3425)"><path d="M 27.7133 30.6849 C 28.0318 30.3653 28.6689 30.0457 29.306 30.3653 L 32.81 31.3242 L 35.6769 26.8493 L 32.81 23.9726 C 32.4915 23.653 32.1729 23.0137 32.4915 22.3744 L 32.4915 22.3744 C 32.81 21.0959 32.81 19.8174 32.81 18.2192 L 32.81 18.2192 C 32.81 18.2192 32.81 18.2192 32.81 18.2192 C 32.81 17.5799 32.81 16.9406 32.4915 16.3014 L 32.4915 16.3014 C 32.4915 15.6621 32.4915 15.3425 32.81 14.7032 L 35.6769 12.1461 L 33.1285 7.3516 L 29.306 8.3105 C 28.6689 8.3105 28.3504 8.3105 27.7133 7.9909 C 26.1206 6.7123 24.2093 5.4338 22.2981 4.7945 C 21.661 4.4749 21.3424 4.1553 21.3424 3.516 L 20.7053 0.9589 L 20.7053 0.9589 L 20.3868 0 L 14.9716 0 L 14.0159 3.8356 C 14.0159 4.4749 13.3788 4.7945 13.0603 5.1142 C 12.1047 5.7534 11.149 6.0731 10.5119 6.7123 C 9.5563 7.032 8.6007 7.6712 7.9636 8.3105 C 7.645 8.9498 7.008 8.9498 6.3709 8.6301 L 2.8669 7.6712 L 0 12.1461 L 2.8669 15.0228 C 3.1854 15.3425 3.504 15.9817 3.1854 16.621 C 2.8669 17.8995 2.8669 19.1781 2.8669 20.7763 C 2.8669 20.7763 2.8669 20.7763 2.8669 20.7763 L 2.8669 21.0959 C 2.8669 21.7352 2.8669 22.3744 3.1854 23.0137 C 3.1854 23.653 3.1854 23.9726 2.8669 24.6119 L 0 27.1689 L 2.5483 31.6438 L 6.3709 30.6849 C 6.3709 30.6849 6.6894 30.6849 6.6894 30.6849 C 6.6894 30.6849 7.008 30.6849 7.008 30.6849 C 7.008 30.6849 7.008 30.6849 7.3265 30.6849 C 7.645 30.6849 7.645 31.0046 7.9636 31.0046 C 9.5563 32.2831 11.149 33.5616 13.3788 34.2009 C 14.0159 34.5205 14.3345 34.8402 14.3345 35.4795 L 14.9716 38.0365 L 15.2901 38.9954 L 20.7053 38.9954 C 20.7053 38.9954 20.7053 38.9954 20.7053 38.9954 L 21.661 35.1598 C 21.661 34.5205 22.2981 34.2009 22.6166 33.8813 C 23.5722 33.5616 24.5279 33.242 25.4835 32.6027 C 26.1206 31.9635 27.0762 31.3242 27.7133 30.6849 Z M 21.0239 28.1279 C 21.0239 28.1279 21.0239 28.1279 21.0239 28.1279 L 14.3345 28.1279 C 13.3788 28.1279 12.4232 27.4886 11.7861 26.5297 L 8.6007 20.7763 C 7.9636 19.8174 7.9636 18.5388 8.6007 17.8995 L 11.7861 12.1461 C 12.4232 11.1872 13.3788 10.5479 14.3345 10.5479 L 20.7053 10.5479 C 21.661 10.5479 22.6166 11.1872 23.2537 12.1461 L 26.4391 17.8995 C 27.0762 18.8584 27.0762 19.8174 26.4391 20.7763 L 23.2537 26.5297 C 23.2537 27.4886 22.2981 28.1279 21.0239 28.1279 Z" stroke="none" fill="#00991a"/></g><g transform="translate(41.6496 45.3881)"><path d="M 14.3345 14.7032 C 14.9715 15.0228 15.2901 15.0228 15.9272 15.0228 C 16.5643 15.0228 17.2014 14.7032 17.8384 14.0639 C 18.7941 13.105 19.1126 11.5068 18.4755 9.9087 L 14.653 2.5571 C 14.653 2.5571 14.653 2.5571 14.653 2.5571 L 13.0603 0 L 11.4676 2.8767 C 10.8305 4.1553 9.2378 4.7945 7.645 4.4749 L 4.7782 3.516 C 4.1411 4.1553 3.1854 4.7945 2.5483 5.1142 C 2.2298 5.4338 1.5927 5.4338 1.2742 5.7534 C 0.9556 6.0731 0.3185 6.0731 0 6.3927 L 0 7.032 L 14.0159 14.7032 C 14.0159 14.7032 14.0159 14.7032 14.3345 14.7032 Z" stroke="none" fill="#00991a"/></g><g transform="translate(9.4638 45.3881)"><path d="M 14.0288 3.516 L 11.1619 4.4749 C 9.5692 4.7945 7.9765 4.1553 7.3394 2.8767 L 5.7467 0 L 4.154 2.5571 L 4.154 2.5571 L 0.3315 9.9087 C -0.3056 11.1872 0.0129 12.7854 0.9685 14.0639 C 1.2871 14.3836 1.6056 14.7032 1.9242 14.7032 C 2.2427 14.7032 2.2427 14.7032 2.5613 14.7032 C 2.8798 14.7032 2.8798 14.7032 3.1983 14.7032 C 3.5169 14.7032 3.8354 14.7032 3.8354 14.7032 C 3.8354 14.7032 3.8354 14.7032 4.154 14.7032 C 4.4725 14.7032 4.7911 14.7032 5.1096 14.3836 L 19.1255 6.7123 L 19.1255 6.0731 C 17.2143 5.7534 15.6216 4.7945 14.0288 3.516 Z" stroke="none" fill="#00991a"/></g></g><g transform="translate(355 545)" fill="#00991a"><g transform="translate(0.2958 0)"><path d="M 8.7998 21.0959 L 6.4334 15.9817 C 5.2503 13.4247 5.5461 10.2283 7.3208 8.3105 C 9.3914 6.0731 12.3493 5.7534 14.7156 7.032 L 19.4482 9.589 C 19.1524 7.3516 18.2651 4.7945 16.4903 3.1963 C 14.7156 1.2785 12.3493 0 9.6871 0 C 7.025 0 4.6587 0.9589 2.884 3.1963 C -0.9613 7.3516 -0.9613 14.0639 2.884 17.8995 C 4.3629 19.8174 6.4334 20.7763 8.7998 21.0959 Z" stroke="none" fill="#00991a"/></g><g transform="translate(0 48.5845)"><path d="M 15.0114 14.0639 C 14.4198 14.3836 13.8282 14.7032 13.2366 14.7032 C 13.2366 14.7032 12.9408 14.7032 12.9408 14.7032 C 12.6451 14.7032 12.3493 14.7032 12.0535 14.7032 C 11.1661 14.7032 10.2787 14.3836 9.3914 14.0639 C 9.3914 14.0639 9.3914 14.0639 9.3914 14.0639 C 8.7998 13.7443 8.2082 13.4247 7.9124 12.7854 C 6.1377 10.8676 5.5461 7.6712 6.7292 5.1142 L 9.0956 0 C 6.7292 0.3196 4.6587 1.2785 2.884 2.8767 C -0.9613 7.032 -0.9613 13.7443 2.884 17.5799 C 6.4334 21.4155 12.9408 21.4155 16.4903 17.5799 C 18.2651 15.6621 19.1524 13.4247 19.1524 10.8676 L 16.7861 12.1461 L 15.0114 14.0639 Z" stroke="none" fill="#00991a"/></g><g transform="translate(45.7736 0.6393)"><path d="M 4.1411 6.3927 C 4.1411 6.3927 4.1411 6.3927 4.1411 6.3927 C 4.7327 6.0731 5.3242 5.7534 5.9158 5.7534 C 5.9158 5.7534 6.2116 5.7534 6.2116 5.7534 C 6.5074 5.7534 6.8032 5.7534 7.099 5.7534 C 7.9863 5.7534 8.8737 6.0731 9.7611 6.3927 C 9.7611 6.3927 9.7611 6.3927 9.7611 6.3927 C 10.3527 6.7123 10.9443 7.032 11.24 7.6712 C 13.0148 9.589 13.6064 12.7854 12.4232 15.3425 L 10.0569 20.4566 C 12.4232 20.137 14.4937 19.1781 16.2685 17.5799 C 18.0432 15.6621 19.2264 13.105 19.2264 10.2283 C 19.2264 7.3516 18.339 4.7945 16.2685 2.8767 C 12.719 -0.9589 6.2116 -0.9589 2.6621 2.8767 C 0.8874 4.7945 0 7.032 0 9.589 L 2.6621 7.9909 L 4.1411 6.3927 Z" stroke="none" fill="#00991a"/></g><g transform="translate(45.182 48.9041)"><path d="M 10.6485 0 L 13.0148 5.1142 C 14.198 7.6712 13.9022 10.8676 11.8316 12.7854 C 11.24 13.4247 10.9443 13.7443 10.3527 14.0639 C 10.3527 14.0639 10.3527 14.0639 10.3527 14.0639 C 9.4653 14.3836 8.5779 14.7032 7.6906 14.7032 C 7.3948 14.7032 7.099 14.7032 6.8032 14.7032 C 6.8032 14.7032 6.5074 14.7032 6.5074 14.7032 C 5.9158 14.7032 5.3242 14.3836 4.7327 14.0639 L 0 11.5068 C 0.2958 14.0639 1.1832 16.3014 2.6621 18.2192 C 6.2116 22.0548 12.719 22.0548 16.2685 18.2192 C 18.0432 16.3014 19.2264 13.7443 19.2264 10.8676 C 19.2264 7.9909 18.339 5.4338 16.2685 3.516 C 15.0853 1.2785 13.0148 0 10.6485 0 Z" stroke="none" fill="#00991a"/></g><g transform="translate(8.8556 9.4631)"><path d="M 43.4254 50.9478 C 43.4254 50.9478 43.4254 50.9478 43.4254 50.9478 C 43.7212 50.9478 44.017 50.9478 44.3128 50.9478 C 44.6086 50.9478 44.6086 50.9478 44.9044 50.9478 C 45.2002 50.9478 45.2002 50.9478 45.496 50.9478 C 45.7918 50.6282 46.0876 50.6282 46.3833 50.3085 C 47.2707 49.3496 47.5665 47.7515 46.9749 46.1533 L 43.4254 38.8017 L 43.4254 38.8017 L 37.2138 26.3359 C 36.918 26.0163 36.918 25.377 37.2138 24.7378 L 43.4254 12.272 C 43.4254 12.272 43.4254 12.272 43.4254 12.272 L 46.9749 4.9204 C 47.5665 3.6419 47.2707 2.0437 46.3833 0.7652 C 45.2002 -0.1937 43.7212 -0.1937 42.5381 0.4455 L 24.199 10.9935 C 23.9033 11.3131 23.3117 11.3131 22.7201 10.9935 L 4.6769 0.4455 C 4.6769 0.4455 4.6769 0.4455 4.6769 0.4455 C 4.3811 0.4455 4.0853 0.1259 3.7895 0.1259 C 3.7895 0.1259 3.7895 0.1259 3.7895 0.1259 C 3.4937 0.1259 3.1979 0.1259 3.1979 0.1259 C 2.9021 0.1259 2.9021 0.1259 2.6063 0.1259 C 2.3105 0.1259 2.3105 0.1259 2.0147 0.4455 C 1.4232 0.4455 1.1274 0.7652 0.8316 1.0848 C -0.0558 2.0437 -0.3516 3.6419 0.5358 4.9204 L 4.0853 12.272 L 4.0853 12.272 L 10.2969 24.7378 C 10.5927 25.0574 10.5927 25.6967 10.2969 26.3359 L 4.0853 38.8017 L 4.0853 38.8017 L 0.5358 46.1533 C -0.0558 47.4318 0.24 49.03 1.1274 50.3085 C 2.0147 51.2674 3.4937 51.5871 4.9727 50.9478 L 23.3117 40.3999 C 23.6075 40.0802 24.199 40.0802 24.7906 40.3999 L 43.1296 50.9478 C 42.8339 50.6282 43.1296 50.6282 43.4254 50.9478 Z M 17.6917 33.0483 L 15.6211 33.0483 C 14.7337 33.0483 14.1422 32.409 14.1422 31.4501 C 14.1422 30.4912 14.7337 29.8519 15.6211 29.8519 L 17.6917 29.8519 C 18.579 29.8519 19.1706 30.4912 19.1706 31.4501 C 19.1706 32.409 18.579 33.0483 17.6917 33.0483 Z M 17.6917 26.9752 L 15.6211 26.9752 C 14.7337 26.9752 14.1422 26.3359 14.1422 25.377 C 14.1422 24.4181 14.7337 23.7789 15.6211 23.7789 L 17.6917 23.7789 C 18.579 23.7789 19.1706 24.4181 19.1706 25.377 C 19.1706 26.3359 18.579 26.9752 17.6917 26.9752 Z M 17.6917 21.2218 L 15.6211 21.2218 C 14.7337 21.2218 14.1422 20.5825 14.1422 19.6236 C 14.1422 18.6647 14.7337 18.0254 15.6211 18.0254 L 17.6917 18.0254 C 18.579 18.0254 19.1706 18.6647 19.1706 19.6236 C 19.1706 20.2629 18.579 21.2218 17.6917 21.2218 Z M 27.4527 31.7697 C 24.199 31.7697 21.8327 28.893 21.8327 25.6967 C 21.8327 22.1807 24.4948 19.6236 27.4527 19.6236 C 30.7064 19.6236 33.0728 22.5003 33.0728 25.6967 C 33.0728 28.893 30.7064 31.7697 27.4527 31.7697 Z" stroke="none" fill="#00991a"/></g></g><g transform="translate(650 475)" fill="#006611"><g transform="translate(43.3957 69.0693)"><path d="M 27.7986 0 L 2.4604 0 C 1.8092 -0.0036 1.1833 0.2516 0.7216 0.7092 C 0.2597 1.167 0 1.7894 0 2.4386 L 30.2158 2.4386 C 30.2197 1.7957 29.9671 1.1777 29.5138 0.7203 C 29.0604 0.2631 28.4435 0.004 27.7986 0 Z" fill="#006611" stroke="none"/></g><g transform="translate(43.4101 71.5079)"><path d="M 2.446 2.4099 L 27.7842 2.4099 C 29.1216 2.4099 30.2079 1.3332 30.2158 0 L 0 0 C 0.0158 1.3357 1.1063 2.41 2.446 2.4099 Z" fill="#006611" stroke="none"/></g><g transform="translate(0 71.5079)"><path d="M 73.6259 0 C 73.6259 1.3389 72.5371 2.4243 71.1942 2.4243 L 45.8561 2.4243 C 45.2073 2.4281 44.5837 2.1748 44.1223 1.7202 C 43.6609 1.2655 43.3996 0.6468 43.3957 0 L 0 0 L 0 2.4243 C 0 4.0335 0.6412 5.5769 1.7826 6.7149 C 2.924 7.8527 4.4721 8.4921 6.0863 8.4921 L 73.8849 8.4921 C 75.5029 8.4959 77.0561 7.8588 78.203 6.7208 C 79.3498 5.5828 79.9963 4.0373 80 2.4243 L 80 0 Z" fill="#006611" stroke="none"/></g><g transform="translate(0.0576 42.6465)"><path d="M 77.2662 0 L 73.3381 4.3034 C 73.3302 5.8268 72.0894 7.0575 70.5612 7.0575 L 9.2374 7.0575 C 7.715 7.0497 6.4827 5.8212 6.4748 4.3034 L 3.1655 0 L 0 0 L 0 4.3034 C 0.0158 9.3759 4.1494 13.4775 9.2374 13.4696 L 70.5612 13.4696 C 75.6517 13.4775 79.7892 9.3783 79.8129 4.3034 L 79.8129 0 Z" fill="#006611" stroke="none"/></g><g transform="translate(0 59.4439)"><path d="M 73.8849 0.0002 C 75.5003 -0.0113 77.0535 0.6194 78.2013 1.7527 C 79.3489 2.8861 79.9963 4.4286 80 6.0391 L 80 10.9163 C 79.9963 12.5293 79.3498 14.0748 78.203 15.2128 C 77.0561 16.3508 75.5029 16.9879 73.8849 16.9841 L 6.1007 16.9841 C 4.484 16.9879 2.9322 16.3503 1.7878 15.2119 C 0.6432 14.0736 0 12.528 0 10.9163 L 0 6.0534 C 0.0037 4.448 0.6472 2.91 1.7886 1.7773 C 2.9299 0.6447 4.476 0.0107 6.0863 0.0145 Z M 71.1942 10.9163 C 69.8512 10.9163 68.7626 9.8309 68.7626 8.492 C 68.7626 7.1531 69.8512 6.0678 71.1942 6.0678 C 72.5371 6.0678 73.6259 7.1531 73.6259 8.492 C 73.6259 9.8309 72.5371 10.9163 71.1942 10.9163 L 45.8561 10.9163 C 47.199 10.9163 48.2878 12.0016 48.2878 13.3405 C 48.2878 14.6794 47.199 15.7648 45.8561 15.7648 C 44.5131 15.7648 43.4245 14.6794 43.4245 13.3405 C 43.4245 12.0016 44.5131 10.9163 45.8561 10.9163 L 71.1942 10.9163" fill="#006611" stroke="none"/></g><g transform="translate(0.0576 0)"><path d="M 70.5612 0 C 75.646 -0.008 79.7813 4.0826 79.8129 9.1519 L 79.8129 43.3781 C 79.7892 48.4531 75.6517 52.5524 70.5612 52.5443 L 9.2374 52.5443 C 4.1494 52.5522 0.0158 48.4507 0 43.3781 L 0 9.1662 C 0.0237 4.0992 4.1548 0.0064 9.2374 0.0144 Z M 73.3381 43.3781 L 73.3381 9.1662 C 73.3381 8.4334 73.0452 7.7306 72.5239 7.2137 C 72.0027 6.6969 71.2964 6.4082 70.5612 6.4121 L 9.2374 6.4121 C 8.5047 6.4121 7.802 6.7023 7.284 7.2188 C 6.7659 7.7353 6.4748 8.4359 6.4748 9.1662 L 6.4748 43.3781 C 6.4827 44.8959 7.715 46.1244 9.2374 46.1322 L 70.5612 46.1322 C 72.0894 46.1322 73.3302 44.9015 73.3381 43.3781" fill="#006611" stroke="none"/></g></g><g transform="translate(735 495)" fill="#006611"><g transform="translate(12.4703 3.5904)"><path d="M 17.5 0 L 35.0298 13.1593 L 35.0298 16.7066 C 35.0298 26.0045 27.1881 33.5419 17.5148 33.5419 C 7.8416 33.5419 0 26.0045 0 16.7066 L 0 13.1593 Z" fill="#006611" stroke="none"/></g><g transform="translate(0 41.7952)"><path d="M 39.9851 0 C 51.0565 0 60 6.4509 60 16.9783 L 60 38.2048 L 48.4673 38.2048 L 48.4673 23.3148 L 46.503 23.3148 L 46.503 38.2048 L 13.8839 38.2048 L 13.8839 23.3148 L 11.9048 23.3148 L 11.9048 38.2048 L 0 38.2048 L 0 16.9783 C 0 6.4509 8.9286 0 20.0297 0 Z" fill="#006611" stroke="none"/></g><g transform="translate(12.4554 0)"><path d="M 17.5148 0.0001 C 27.0905 0.0711 34.8027 7.5733 34.7618 16.7774 C 34.7209 25.9818 26.9423 33.4204 17.3663 33.4126 C 7.7905 33.4049 0.0249 25.954 0 16.7496 C 0.0079 12.2948 1.8586 8.0258 5.144 4.8839 C 8.4296 1.7418 12.8803 -0.0152 17.5148 0.0001 Z" fill="#006611" stroke="none"/></g><g transform="translate(0 38.2478)"><path d="M 39.9851 0 C 51.0565 0 60 6.4509 60 16.9783 L 60 38.2048 L 48.4673 38.2048 L 48.4673 23.2576 L 46.503 23.2576 L 46.503 38.2048 L 13.8839 38.2048 L 13.8839 23.2576 L 11.9048 23.2576 L 11.9048 38.2048 L 0 38.2048 L 0 16.9783 C 0 6.4509 8.9286 0 20.0297 0 Z" fill="#006611" stroke="none"/></g></g><g transform="translate(284.6273 324.3911)"><path fill="none" d="M 5.9104 163.9416 L 209.8644 4.6171" stroke="#004c99"/><use class="BeginArrow.cls" fill="#004c99" x="0" y="112.3725" xlink:href="#thick.end" transform="scale(1.5) rotate(232.0037 0 112.3725)"/><use class="EndArrow.cls" fill="#004c99" x="143.8499" y="0" xlink:href="#thick.end" transform="scale(1.5) rotate(52.0038 143.8499 0)"/></g><g transform="translate(390.4623 328.2418)"><path fill="none" d="M 5.0701 118.2517 L 108.4839 5.5266" stroke="#004c99"/><use class="BeginArrow.cls" fill="#004c99" x="0" y="82.5189" xlink:href="#thick.end" transform="scale(1.5) rotate(222.5332 0 82.5189)"/><use class="EndArrow.cls" fill="#004c99" x="75.7027" y="0" xlink:href="#thick.end" transform="scale(1.5) rotate(42.5332 75.7027 0)"/></g><g transform="translate(493.1639 343.4294)"><path fill="none" d="M 1.3458 131.8461 L 24.0488 7.3783" stroke="#004c99"/><use class="BeginArrow.cls" fill="#004c99" x="0" y="92.8163" xlink:href="#thick.end" transform="scale(1.5) rotate(190.3371 0 92.8163)"/><use class="EndArrow.cls" fill="#004c99" x="16.9297" y="0" xlink:href="#thick.end" transform="scale(1.5) rotate(10.3371 16.9297 0)"/></g><g transform="translate(403.1123 335.4836)"><path fill="none" d="M 3.3632 206.6933 L 103.699 6.7036" stroke="#004c99"/><use class="BeginArrow.cls" fill="#004c99" x="0" y="142.2646" xlink:href="#thick.end" transform="scale(1.5) rotate(206.6431 0 142.2646)"/><use class="EndArrow.cls" fill="#004c99" x="71.3748" y="0" xlink:href="#thick.end" transform="scale(1.5) rotate(26.6431 71.3748 0)"/></g><g transform="translate(545.8221 330.529)"><path fill="none" d="M 108.3189 138.5905 L 4.6185 5.9093" stroke="#004c99"/><use class="BeginArrow.cls" fill="#004c99" x="75.2916" y="96.3332" xlink:href="#thick.end" transform="scale(1.5) rotate(141.9897 75.2916 96.3332)"/><use class="EndArrow.cls" fill="#004c99" x="0" y="0" xlink:href="#thick.end" transform="scale(1.5) rotate(321.9897 0 0)"/></g><g transform="translate(580 265)"><rect fill="#330066" height="65" stroke="none" width="175" x="0" y="0"/><g><text fill="#ffffff" fill-opacity="1" text-anchor="start" font-family="Arial"><tspan x="10" y="21.3">Mothership Drone with </tspan><tspan x="10" y="38.1">4G connection to the </tspan><tspan x="10" y="54.9">Cloud</tspan></text></g></g><g transform="translate(120 565)"><rect fill="#006611" height="75" stroke="none" width="205" x="0" y="0"/><g><text fill="#ffffff" fill-opacity="1" text-anchor="start" font-family="Arial"><tspan x="10" y="26.3">Drone Swarm each </tspan><tspan x="10" y="43.1">connected independently to </tspan><tspan x="10" y="59.9">Mothership</tspan></text></g></g><g transform="translate(650 585)"><rect fill="#006611" height="50" stroke="none" width="150" x="0" y="0"/><g><text fill="#ffffff" fill-opacity="1" text-anchor="start" font-family="Arial"><tspan x="10" y="22.2">Ground Control </tspan><tspan x="10" y="39">Station</tspan></text></g></g></svg>