<?xml version="1.0" encoding="UTF-8" standalone="no"?><!DOCTYPE svg PUBLIC "-//W3C//DTD SVG 1.1//EN" "http://www.w3.org/Graphics/SVG/1.1/DTD/svg11.dtd"><svg width="350" viewBox="0 0 532 98" version="1.1" xmlns="http://www.w3.org/2000/svg" xmlns:xlink="http://www.w3.org/1999/xlink" xml:space="preserve" style="fill-rule:evenodd;clip-rule:evenodd;stroke-linejoin:round;stroke-miterlimit:1.41421;"><g id="Layer-1"><path d="M188.357,83.934l-8.16,0l-6.528,-47.808l-23.616,47.808l-2.496,0l-23.904,-48.192l-6.528,48.192l-7.968,0l9.984,-70.272l2.016,0l27.648,55.776l27.456,-55.776l2.016,0l10.08,70.272Z" style="fill-rule:nonzero;"/><path d="M251.621,83.934l-7.776,0l0,-7.68c-5.696,6.272 -12.256,9.408 -19.68,9.408c-7.424,0 -13.776,-2.736 -19.056,-8.208c-5.28,-5.472 -7.92,-12 -7.92,-19.584c0,-7.584 2.656,-14.08 7.968,-19.488c5.312,-5.408 11.792,-8.112 19.44,-8.112c7.648,0 14.064,3.104 19.248,9.312l0,-7.968l7.776,0l0,52.32Zm-26.88,-5.664c5.312,0 9.888,-1.92 13.728,-5.76c3.84,-3.84 5.76,-8.624 5.76,-14.352c0,-5.728 -1.888,-10.528 -5.664,-14.4c-3.776,-3.872 -8.4,-5.808 -13.872,-5.808c-5.472,0 -10.096,2 -13.872,6c-3.776,4 -5.664,8.72 -5.664,14.16c0,5.44 1.92,10.16 5.76,14.16c3.84,4 8.448,6 13.824,6Z" style="fill-rule:nonzero;"/><path d="M309.893,31.614l-23.904,54.048l-1.92,0l-24.096,-54.048l8.352,0l16.608,37.824l16.608,-37.824l8.352,0Z" style="fill-rule:nonzero;"/><path d="M369.797,59.166l-45.888,0c0.32,5.76 2.256,10.384 5.808,13.872c3.552,3.488 7.792,5.232 12.72,5.232c8.384,0 14.784,-4.128 19.2,-12.384l6.72,3.456c-3.008,5.568 -6.56,9.68 -10.656,12.336c-4.096,2.656 -8.992,3.984 -14.688,3.984c-7.872,0 -14.368,-2.704 -19.488,-8.112c-5.12,-5.408 -7.68,-11.92 -7.68,-19.536c0,-7.616 2.576,-14.144 7.728,-19.584c5.152,-5.44 11.536,-8.16 19.152,-8.16c7.616,0 13.984,2.576 19.104,7.728c5.12,5.152 7.776,12.208 7.968,21.168Zm-8.832,-7.008c-0.96,-4.48 -3.136,-7.968 -6.528,-10.464c-3.392,-2.496 -7.296,-3.744 -11.712,-3.744c-8.96,0 -14.912,4.736 -17.856,14.208l36.096,0Z" style="fill-rule:nonzero;"/><path d="M402.725,32.382l-4.128,6.72c-1.088,-0.576 -2.144,-0.864 -3.168,-0.864c-1.984,0 -3.776,0.976 -5.376,2.928c-1.6,1.952 -2.8,4.512 -3.6,7.68c-0.8,3.168 -1.2,8.88 -1.2,17.136l0,17.952l-8.064,0l0,-52.32l8.064,0l0,5.664c1.6,-2.368 3.216,-4.128 4.848,-5.28c1.632,-1.152 3.488,-1.728 5.568,-1.728c2.08,0 4.432,0.704 7.056,2.112Z" style="fill-rule:nonzero;"/><path d="M412.517,11.934c1.728,0 3.184,0.592 4.368,1.776c1.184,1.184 1.776,2.624 1.776,4.32c0,1.696 -0.592,3.136 -1.776,4.32c-1.184,1.184 -2.624,1.776 -4.32,1.776c-1.696,0 -3.136,-0.608 -4.32,-1.824c-1.184,-1.216 -1.776,-2.64 -1.776,-4.272c0,-1.632 0.592,-3.056 1.776,-4.272c1.184,-1.216 2.608,-1.824 4.272,-1.824Zm4.032,72l-7.968,0l0,-52.32l7.968,0l0,52.32Z" style="fill-rule:nonzero;"/><path d="M479.909,73.278c-2.752,4.032 -6.352,7.104 -10.8,9.216c-4.448,2.112 -9.264,3.168 -14.448,3.168c-8.064,0 -14.8,-2.656 -20.208,-7.968c-5.408,-5.312 -8.112,-11.808 -8.112,-19.488c0,-7.68 2.72,-14.256 8.16,-19.728c5.44,-5.472 12.48,-8.208 21.12,-8.208c5.12,0 9.84,1.12 14.16,3.36c4.32,2.24 7.696,5.376 10.128,9.408l-6.24,3.936c-4.672,-6.08 -10.784,-9.12 -18.336,-9.12c-5.952,0 -10.944,1.904 -14.976,5.712c-4.032,3.808 -6.048,8.528 -6.048,14.16c0,5.632 1.984,10.464 5.952,14.496c3.968,4.032 8.992,6.048 15.072,6.048c7.296,0 13.44,-3.072 18.432,-9.216l6.144,4.224Z" style="fill-rule:nonzero;"/><path d="M531.941,83.934l-11.424,0l-24.576,-22.08l0,22.08l-7.968,0l0,-72l7.968,0l0,39.456l22.56,-19.68l11.808,-0.096l-28.8,24.96l30.432,27.36Z" style="fill-rule:nonzero;"/></g><g id="Layer-11"><path d="M12.013,31.565l-3.361,-6.236c-1.69,-3.17 -1.106,-7.137 1.429,-9.656c2.471,-2.48 6.514,-3.083 9.628,-1.416l6.264,3.36c-0.218,-3.083 -1.515,-5.979 -3.749,-8.212c-2.456,-2.456 -5.725,-3.805 -9.204,-3.805c-3.483,0 -6.752,1.349 -9.212,3.805c-5.077,5.082 -5.077,13.349 0,18.419c2.21,2.214 5.098,3.523 8.205,3.741" style="fill-rule:nonzero;"/><path d="M19.718,83.456c-0.733,0.397 -1.527,0.627 -2.336,0.782c-0.127,0.024 -0.254,0.032 -0.389,0.048c-0.377,0.055 -0.754,0.146 -1.143,0.146c-1.273,0 -2.483,-0.325 -3.59,-0.868c-0.055,-0.024 -0.099,-0.052 -0.151,-0.076c-0.737,-0.389 -1.432,-0.845 -2.039,-1.448c-2.535,-2.527 -3.118,-6.502 -1.42,-9.648l3.364,-6.244c-3.114,0.222 -5.998,1.531 -8.208,3.741c-5.074,5.066 -5.074,13.333 0.004,18.419c4.915,4.92 13.5,4.912 18.416,0c2.229,-2.241 3.53,-5.129 3.745,-8.216l-3.031,1.631l-3.222,1.733Z" style="fill-rule:nonzero;"/><path d="M66.786,14.256c0.008,-0.008 0.02,-0.008 0.032,-0.008c0.71,-0.381 1.487,-0.611 2.273,-0.766c0.162,-0.024 0.321,-0.039 0.488,-0.055c0.353,-0.048 0.706,-0.131 1.067,-0.131c1.269,0 2.483,0.317 3.59,0.861c0.064,0.019 0.119,0.059 0.183,0.091c0.726,0.381 1.416,0.837 2.015,1.432c2.563,2.567 3.138,6.439 1.42,9.64l-3.36,6.245c3.118,-0.223 5.998,-1.524 8.2,-3.734c2.464,-2.463 3.817,-5.724 3.817,-9.203c0,-3.48 -1.353,-6.753 -3.809,-9.216c-4.923,-4.919 -13.5,-4.919 -18.419,0c-2.234,2.233 -3.531,5.121 -3.749,8.208l3.415,-1.837l2.837,-1.527Z" style="fill-rule:nonzero;"/><path d="M74.492,66.146l3.36,6.245c1.714,3.209 1.146,7.081 -1.42,9.648c-0.611,0.603 -1.317,1.075 -2.059,1.456c-0.04,0.024 -0.076,0.048 -0.119,0.063c-1.107,0.548 -2.325,0.865 -3.595,0.865c-0.384,0 -0.761,-0.083 -1.146,-0.139c-0.135,-0.023 -0.266,-0.031 -0.405,-0.051c-0.809,-0.155 -1.595,-0.389 -2.321,-0.786l-6.256,-3.352c0.222,3.083 1.52,5.979 3.753,8.212c4.911,4.911 13.493,4.911 18.412,0c2.459,-2.464 3.812,-5.732 3.812,-9.212c0,-3.471 -1.353,-6.744 -3.816,-9.2c-2.21,-2.213 -5.094,-3.522 -8.2,-3.749" style="fill-rule:nonzero;"/><path d="M48.415,56.546c-4.237,0 -7.685,-3.447 -7.685,-7.684c0,-4.241 3.448,-7.689 7.685,-7.689c4.237,0 7.684,3.448 7.684,7.689c0,4.237 -3.447,7.684 -7.684,7.684m-13.056,-13.087l-2.976,0c-1.095,0 -1.983,-0.881 -1.983,-1.984c0,-1.091 0.888,-1.984 1.983,-1.984l2.976,0c1.095,0 1.983,0.893 1.983,1.984c0,1.103 -0.888,1.984 -1.983,1.984m0,7.386l-2.976,0c-1.095,0 -1.983,-0.892 -1.983,-1.983c0,-1.103 0.888,-1.988 1.983,-1.988l2.976,0c1.095,0 1.983,0.885 1.983,1.988c0,1.091 -0.888,1.983 -1.983,1.983m0,7.375l-2.976,0c-1.095,0 -1.983,-0.884 -1.983,-1.983c0,-1.095 0.888,-1.984 1.983,-1.984l2.976,0c1.095,0 1.983,0.889 1.983,1.984c0,1.099 -0.888,1.983 -1.983,1.983m34.482,22.137c0.092,0.016 0.175,0.024 0.266,0.032c0.29,0.04 0.575,0.032 0.869,0.008c0.286,-0.024 0.559,-0.087 0.829,-0.163c0.206,-0.063 0.413,-0.103 0.607,-0.186c0.44,-0.21 0.865,-0.464 1.218,-0.813c1.297,-1.294 1.595,-3.341 0.722,-4.967l-4.86,-9.022l-0.004,-0.016l-8.303,-15.424c-0.313,-0.591 -0.313,-1.293 0,-1.884l8.303,-15.425c0,-0.008 0,-0.016 0,-0.016l4.872,-9.037c0.869,-1.618 0.567,-3.658 -0.734,-4.959c-1.281,-1.269 -3.356,-1.595 -4.967,-0.726l-24.461,13.163c-0.592,0.318 -1.298,0.318 -1.885,0l-24.477,-13.171c-0.008,0 -0.016,-0.008 -0.024,-0.008c-0.377,-0.194 -0.774,-0.317 -1.186,-0.396c-0.048,-0.008 -0.107,-0.008 -0.163,-0.016c-0.325,-0.044 -0.651,-0.04 -0.98,-0.008c-0.238,0.016 -0.472,0.079 -0.706,0.139c-0.234,0.063 -0.476,0.111 -0.698,0.21c-0.437,0.21 -0.849,0.456 -1.194,0.805c-1.306,1.301 -1.607,3.341 -0.738,4.967l4.859,9.029l8.316,15.449c0.313,0.591 0.313,1.293 0,1.884l-8.316,15.432l0,0.008l-4.863,9.03c-0.873,1.618 -0.572,3.657 0.734,4.959c1.281,1.277 3.352,1.586 4.963,0.726l24.473,-13.164c0.587,-0.317 1.297,-0.317 1.881,0l24.469,13.156c0.373,0.202 0.774,0.325 1.178,0.404" style="fill-rule:nonzero;"/></g></svg>
